<svg width="355" height="160" viewBox="0 0 355 160" fill="none" xmlns="http://www.w3.org/2000/svg">
<g filter="url(#filter0_d)">
<path d="M12 15C12 11.6863 14.6863 9 18 9H337C340.314 9 343 11.6863 343 15V153C343 156.314 340.314 159 337 159H18C14.6863 159 12 156.314 12 153V15Z" fill="white"/>
</g>
<circle cx="53" cy="52" r="23" fill="#649AEC"/>
<path d="M43.8301 54.3479H52.2934V63.04H45.4312C44.5529 63.04 43.8301 62.3172 43.8301 61.4388V54.3479Z" fill="white"/>
<path d="M62.1293 54.3479V61.4388C62.1293 62.3172 61.4065 63.04 60.5281 63.04H53.666V54.3479H62.1293Z" fill="white"/>
<path d="M42 49.087V51.3744C42 52.2527 42.7228 52.9755 43.6012 52.9755H43.8299H52.2932V51.6031V47.4858H43.6012C42.7228 47.4858 42 48.2086 42 49.087Z" fill="white"/>
<path d="M62.358 47.4858H53.666V51.6031V52.9755H62.1293H62.358C63.2364 52.9755 63.9592 52.2527 63.9592 51.3744V49.087C63.9592 48.2086 63.2364 47.4858 62.358 47.4858Z" fill="white"/>
<path d="M52.9789 48.441C52.7795 48.441 52.5892 48.3541 52.4602 48.2031C52.3293 48.0522 52.2717 47.8518 52.3 47.6542C52.6386 45.3668 54.4255 41.04 58.7697 41.04C61.2492 41.0409 62.1284 42.3804 62.1284 43.5277C62.1284 45.5672 59.2894 48.441 52.9789 48.441ZM58.7697 42.4133C55.4923 42.4133 54.248 45.5287 53.8353 47.0485C56.421 46.9277 58.0514 46.2735 58.9902 45.7163C60.2921 44.9432 60.756 44.0785 60.756 43.5268C60.756 42.7052 59.7304 42.4133 58.7697 42.4133Z" fill="white"/>
<path d="M52.9806 48.441C46.6701 48.441 43.8311 45.5672 43.8311 43.5277C43.8311 42.3804 44.7112 41.0409 47.1908 41.0409C51.534 41.0409 53.3209 45.3677 53.6595 47.6551C53.6878 47.8527 53.6302 48.0531 53.4993 48.204C53.3703 48.3541 53.18 48.441 52.9806 48.441ZM47.1908 42.4133C46.2301 42.4133 45.2035 42.7061 45.2035 43.5277C45.2035 44.6961 47.2466 46.8252 52.1233 47.0494C51.7115 45.5287 50.4672 42.4133 47.1908 42.4133Z" fill="white"/>

<path d="M102.696 129V119.662H100.386L97.838 125.808L95.304 119.662H92.994V129H94.632V122.07L97.488 129H98.188L101.058 122.07V129H102.696ZM107.693 129.168C109.863 129.168 111.179 127.558 111.179 125.612C111.179 123.68 109.863 122.07 107.693 122.07C105.551 122.07 104.221 123.68 104.221 125.612C104.221 127.558 105.551 129.168 107.693 129.168ZM107.693 127.866C106.447 127.866 105.747 126.816 105.747 125.612C105.747 124.422 106.447 123.372 107.693 123.372C108.953 123.372 109.653 124.422 109.653 125.612C109.653 126.816 108.953 127.866 107.693 127.866ZM114.137 129V124.394C114.431 123.918 115.257 123.498 115.873 123.498C116.055 123.498 116.209 123.512 116.335 123.54V122.084C115.453 122.084 114.641 122.588 114.137 123.232V122.238H112.667V129H114.137ZM120.642 129.168C121.72 129.168 122.714 128.832 123.386 128.188L122.714 127.222C122.238 127.698 121.454 127.964 120.796 127.964C119.522 127.964 118.752 127.124 118.64 126.102H123.862V125.752C123.862 123.624 122.56 122.07 120.53 122.07C118.528 122.07 117.1 123.652 117.1 125.612C117.1 127.754 118.612 129.168 120.642 129.168ZM122.434 125.066H118.626C118.696 124.24 119.27 123.274 120.53 123.274C121.86 123.274 122.406 124.268 122.434 125.066ZM132.423 129C135.335 129 137.309 127.082 137.309 124.338C137.309 121.594 135.335 119.662 132.423 119.662H128.951V129H132.423ZM132.423 127.558H130.589V121.104H132.423C134.509 121.104 135.629 122.532 135.629 124.338C135.629 126.102 134.453 127.558 132.423 127.558ZM141.97 129.168C143.048 129.168 144.042 128.832 144.714 128.188L144.042 127.222C143.566 127.698 142.782 127.964 142.124 127.964C140.85 127.964 140.08 127.124 139.968 126.102H145.19V125.752C145.19 123.624 143.888 122.07 141.858 122.07C139.856 122.07 138.428 123.652 138.428 125.612C138.428 127.754 139.94 129.168 141.97 129.168ZM143.762 125.066H139.954C140.024 124.24 140.598 123.274 141.858 123.274C143.188 123.274 143.734 124.268 143.762 125.066ZM148.671 129.168C149.357 129.168 149.791 128.986 150.057 128.734L149.707 127.628C149.595 127.754 149.329 127.866 149.049 127.866C148.629 127.866 148.405 127.53 148.405 127.068V123.526H149.777V122.238H148.405V120.39H146.935V122.238H145.815V123.526H146.935V127.432C146.935 128.552 147.537 129.168 148.671 129.168ZM156.712 129V124.52C156.712 122.7 155.396 122.07 153.898 122.07C152.82 122.07 151.84 122.42 151.056 123.162L151.658 124.184C152.246 123.61 152.904 123.33 153.66 123.33C154.598 123.33 155.242 123.806 155.242 124.59V125.598C154.752 125.024 153.968 124.73 153.058 124.73C151.952 124.73 150.706 125.374 150.706 126.928C150.706 128.426 151.952 129.168 153.058 129.168C153.954 129.168 154.738 128.846 155.242 128.272V129H156.712ZM153.632 128.16C152.806 128.16 152.19 127.684 152.19 126.956C152.19 126.214 152.806 125.738 153.632 125.738C154.276 125.738 154.906 125.976 155.242 126.438V127.46C154.906 127.922 154.276 128.16 153.632 128.16ZM159.346 121.412C159.85 121.412 160.256 121.006 160.256 120.502C160.256 119.998 159.85 119.592 159.346 119.592C158.856 119.592 158.436 119.998 158.436 120.502C158.436 121.006 158.856 121.412 159.346 121.412ZM160.088 129V122.238H158.618V129H160.088ZM163.465 129V119.662H161.995V129H163.465ZM167.682 129.168C169.502 129.168 170.496 128.258 170.496 127.068C170.496 124.38 166.408 125.276 166.408 124.072C166.408 123.596 166.898 123.246 167.668 123.246C168.508 123.246 169.264 123.596 169.67 124.058L170.286 123.022C169.67 122.476 168.802 122.07 167.654 122.07C165.946 122.07 164.994 123.022 164.994 124.128C164.994 126.718 169.082 125.766 169.082 127.096C169.082 127.628 168.634 128.006 167.752 128.006C166.87 128.006 165.932 127.544 165.456 127.054L164.784 128.118C165.484 128.804 166.534 129.168 167.682 129.168Z" fill="#649AEC"/>

<path d="M94.632 39V35.514H97.096C99.042 35.514 100.148 34.17 100.148 32.588C100.148 31.006 99.056 29.662 97.096 29.662H92.994V39H94.632ZM96.872 34.072H94.632V31.104H96.872C97.796 31.104 98.468 31.692 98.468 32.588C98.468 33.484 97.796 34.072 96.872 34.072ZM102.94 39V29.662H101.47V39H102.94ZM107.969 39.168C109.047 39.168 110.041 38.832 110.713 38.188L110.041 37.222C109.565 37.698 108.781 37.964 108.123 37.964C106.849 37.964 106.079 37.124 105.967 36.102H111.189V35.752C111.189 33.624 109.887 32.07 107.857 32.07C105.855 32.07 104.427 33.652 104.427 35.612C104.427 37.754 105.939 39.168 107.969 39.168ZM109.761 35.066H105.953C106.023 34.24 106.597 33.274 107.857 33.274C109.187 33.274 109.733 34.268 109.761 35.066ZM118.87 39V29.662H117.4V33.176C116.854 32.462 116.07 32.07 115.23 32.07C113.48 32.07 112.22 33.442 112.22 35.626C112.22 37.852 113.494 39.168 115.23 39.168C116.098 39.168 116.882 38.748 117.4 38.076V39H118.87ZM115.65 37.866C114.488 37.866 113.745 36.928 113.745 35.626C113.745 34.31 114.488 33.372 115.65 33.372C116.35 33.372 117.064 33.778 117.4 34.282V36.97C117.064 37.474 116.35 37.866 115.65 37.866ZM123.518 41.744C125.184 41.744 126.99 41.086 126.99 38.65V32.238H125.52V33.176C124.974 32.462 124.204 32.07 123.35 32.07C121.614 32.07 120.354 33.358 120.354 35.542C120.354 37.768 121.628 39.014 123.35 39.014C124.232 39.014 125.002 38.566 125.52 37.894V38.706C125.52 40.092 124.484 40.54 123.518 40.54C122.622 40.54 121.922 40.302 121.376 39.672L120.69 40.736C121.516 41.492 122.37 41.744 123.518 41.744ZM123.784 37.712C122.622 37.712 121.88 36.844 121.88 35.542C121.88 34.24 122.622 33.372 123.784 33.372C124.47 33.372 125.198 33.778 125.52 34.282V36.802C125.198 37.306 124.47 37.712 123.784 37.712ZM132.017 39.168C133.095 39.168 134.089 38.832 134.761 38.188L134.089 37.222C133.613 37.698 132.829 37.964 132.171 37.964C130.897 37.964 130.127 37.124 130.015 36.102H135.237V35.752C135.237 33.624 133.935 32.07 131.905 32.07C129.903 32.07 128.475 33.652 128.475 35.612C128.475 37.754 129.987 39.168 132.017 39.168ZM133.809 35.066H130.001C130.071 34.24 130.645 33.274 131.905 33.274C133.235 33.274 133.781 34.268 133.809 35.066Z" fill="#649AEC"/>
<defs>
<filter id="filter0_d" x="0" y="0" width="355" height="174" filterUnits="userSpaceOnUse" color-interpolation-filters="sRGB">
<feFlood flood-opacity="0" result="BackgroundImageFix"/>
<feColorMatrix in="SourceAlpha" type="matrix" values="0 0 0 0 0 0 0 0 0 0 0 0 0 0 0 0 0 0 127 0" result="hardAlpha"/>
<feOffset dy="3"/>
<feGaussianBlur stdDeviation="6"/>
<feColorMatrix type="matrix" values="0 0 0 0 0 0 0 0 0 0 0 0 0 0 0 0 0 0 0.1 0"/>
<feBlend mode="normal" in2="BackgroundImageFix" result="effect1_dropShadow"/>
<feBlend mode="normal" in="SourceGraphic" in2="effect1_dropShadow" result="shape"/>
</filter>
</defs>
</svg>
