<svg width="355" height="526" viewBox="0 0 355 526" fill="none" xmlns="http://www.w3.org/2000/svg">
<g filter="url(#filter0_d)">
<path fill-rule="evenodd" clip-rule="evenodd" d="M12 15C12 11.6863 14.6863 9 18 9H337C340.314 9 343 11.6863 343 15V176.2C342.354 176.069 341.685 176 341 176C335.477 176 331 180.477 331 186C331 191.523 335.477 196 341 196C341.685 196 342.354 195.931 343 195.8V505C343 508.314 340.314 511 337 511H18C14.6863 511 12 508.314 12 505V195.8C12.6462 195.931 13.3151 196 14 196C19.5228 196 24 191.523 24 186C24 180.477 19.5228 176 14 176C13.3151 176 12.6462 176.069 12 176.2V15Z" fill="white"/>
</g>
<path d="M29.32 190.656V189.6H25.48V190.656H29.32ZM38.1169 190.656V189.6H34.2769V190.656H38.1169ZM46.9138 190.656V189.6H43.0738V190.656H46.9138ZM55.7106 190.656V189.6H51.8706V190.656H55.7106ZM64.5075 190.656V189.6H60.6675V190.656H64.5075ZM73.3044 190.656V189.6H69.4644V190.656H73.3044ZM82.1013 190.656V189.6H78.2613V190.656H82.1013ZM90.8981 190.656V189.6H87.0581V190.656H90.8981ZM99.695 190.656V189.6H95.855V190.656H99.695ZM108.492 190.656V189.6H104.652V190.656H108.492ZM117.289 190.656V189.6H113.449V190.656H117.289ZM126.086 190.656V189.6H122.246V190.656H126.086ZM134.883 190.656V189.6H131.043V190.656H134.883ZM143.679 190.656V189.6H139.839V190.656H143.679ZM152.476 190.656V189.6H148.636V190.656H152.476ZM161.273 190.656V189.6H157.433V190.656H161.273ZM170.07 190.656V189.6H166.23V190.656H170.07ZM178.867 190.656V189.6H175.027V190.656H178.867ZM187.664 190.656V189.6H183.824V190.656H187.664ZM196.461 190.656V189.6H192.621V190.656H196.461ZM205.258 190.656V189.6H201.418V190.656H205.258ZM214.054 190.656V189.6H210.214V190.656H214.054ZM222.851 190.656V189.6H219.011V190.656H222.851ZM231.648 190.656V189.6H227.808V190.656H231.648ZM240.445 190.656V189.6H236.605V190.656H240.445ZM249.242 190.656V189.6H245.402V190.656H249.242ZM258.039 190.656V189.6H254.199V190.656H258.039ZM266.836 190.656V189.6H262.996V190.656H266.836ZM275.633 190.656V189.6H271.793V190.656H275.633ZM284.429 190.656V189.6H280.589V190.656H284.429ZM293.226 190.656V189.6H289.386V190.656H293.226ZM302.023 190.656V189.6H298.183V190.656H302.023ZM310.82 190.656V189.6H306.98V190.656H310.82ZM319.617 190.656V189.6H315.777V190.656H319.617ZM328.414 190.656V189.6H324.574V190.656H328.414Z" fill="#E0E0E0"/>
<circle cx="178" cy="70" r="28" fill="#649AEC"/>
<path d="M166.837 72.8585H177.14V83.4401H168.786C167.717 83.4401 166.837 82.5601 166.837 81.4908V72.8585Z" fill="white"/>
<path d="M189.115 72.8585V81.4908C189.115 82.5601 188.235 83.4401 187.165 83.4401H178.812V72.8585H189.115Z" fill="white"/>
<path d="M164.609 66.4537V69.2383C164.609 70.3076 165.489 71.1876 166.559 71.1876H166.837H177.14V69.5168V64.5045H166.559C165.489 64.5045 164.609 65.3844 164.609 66.4537Z" fill="white"/>
<path d="M189.393 64.5045H178.812V69.5168V71.1876H189.115H189.393C190.462 71.1876 191.342 70.3076 191.342 69.2383V66.4537C191.342 65.3844 190.462 64.5045 189.393 64.5045Z" fill="white"/>
<path d="M177.975 65.6674C177.732 65.6674 177.5 65.5616 177.343 65.3778C177.184 65.194 177.114 64.95 177.148 64.7095C177.56 61.9248 179.736 56.6574 185.024 56.6574C188.043 56.6585 189.113 58.2892 189.113 59.686C189.113 62.1688 185.657 65.6674 177.975 65.6674ZM185.024 58.3293C181.034 58.3293 179.52 62.122 179.017 63.9721C182.165 63.8251 184.15 63.0287 185.293 62.3503C186.878 61.4091 187.442 60.3565 187.442 59.6849C187.442 58.6846 186.194 58.3293 185.024 58.3293Z" fill="white"/>
<path d="M177.977 65.6674C170.295 65.6674 166.839 62.1687 166.839 59.686C166.839 58.2892 167.91 56.6585 170.929 56.6585C176.216 56.6585 178.392 61.9259 178.804 64.7106C178.838 64.9511 178.768 65.1951 178.609 65.3789C178.452 65.5615 178.22 65.6674 177.977 65.6674ZM170.929 58.3293C169.759 58.3293 168.51 58.6857 168.51 59.686C168.51 61.1084 170.997 63.7003 176.934 63.9732C176.432 62.122 174.918 58.3293 170.929 58.3293Z" fill="white"/>

<path d="M41.086 221L37.32 211.662H35.878L32.126 221H33.456L34.282 218.928H38.93L39.756 221H41.086ZM38.58 217.892H34.618L36.606 212.866L38.58 217.892ZM51.4768 221V216.114C51.4768 214.756 50.8188 214.07 49.5868 214.07C48.6068 214.07 47.6968 214.714 47.3188 215.33C47.1228 214.63 46.5348 214.07 45.4988 214.07C44.5048 214.07 43.5948 214.784 43.3148 215.218V214.238H42.2648V221H43.3148V216.058C43.6788 215.512 44.4068 215.008 45.0928 215.008C45.9748 215.008 46.3388 215.554 46.3388 216.408V221H47.3888V216.044C47.7388 215.512 48.4808 215.008 49.1808 215.008C50.0488 215.008 50.4268 215.554 50.4268 216.408V221H51.4768ZM56.5255 221.168C58.5835 221.168 59.8715 219.572 59.8715 217.612C59.8715 215.652 58.5835 214.07 56.5255 214.07C54.4675 214.07 53.1795 215.652 53.1795 217.612C53.1795 219.572 54.4675 221.168 56.5255 221.168ZM56.5255 220.23C55.0835 220.23 54.2715 218.998 54.2715 217.612C54.2715 216.24 55.0835 215.008 56.5255 215.008C57.9675 215.008 58.7655 216.24 58.7655 217.612C58.7655 218.998 57.9675 220.23 56.5255 220.23ZM67.1972 221V214.238H66.1472V219.208C65.7552 219.754 64.9712 220.23 64.1452 220.23C63.2352 220.23 62.6332 219.88 62.6332 218.69V214.238H61.5832V219.012C61.5832 220.482 62.3252 221.168 63.7392 221.168C64.7472 221.168 65.6292 220.636 66.1472 220.048V221H67.1972ZM74.9081 221V216.254C74.9081 214.784 74.1661 214.07 72.7521 214.07C71.7441 214.07 70.8201 214.658 70.3441 215.218V214.238H69.2941V221H70.3441V216.058C70.7361 215.512 71.5201 215.008 72.3461 215.008C73.2561 215.008 73.8581 215.386 73.8581 216.576V221H74.9081ZM78.7131 221.168C79.3291 221.168 79.7071 220.986 79.9731 220.734L79.6651 219.95C79.5251 220.104 79.2451 220.23 78.9511 220.23C78.4891 220.23 78.2651 219.866 78.2651 219.362V215.162H79.6371V214.238H78.2651V212.39H77.2151V214.238H76.0951V215.162H77.2151V219.586C77.2151 220.594 77.7191 221.168 78.7131 221.168Z" fill="#838383"/>

<path d="M112.868 221L110.348 217.192C111.622 217.08 112.77 216.156 112.77 214.476C112.77 212.754 111.552 211.662 109.844 211.662H106.092V221H107.254V217.29H109.116L111.496 221H112.868ZM109.704 216.268H107.254V212.698H109.704C110.81 212.698 111.566 213.426 111.566 214.476C111.566 215.526 110.81 216.268 109.704 216.268ZM117.196 221.168C118.302 221.168 119.212 220.804 119.884 220.132L119.38 219.446C118.848 219.992 118.064 220.3 117.294 220.3C115.838 220.3 114.942 219.236 114.858 217.962H120.332V217.696C120.332 215.666 119.128 214.07 117.084 214.07C115.152 214.07 113.752 215.652 113.752 217.612C113.752 219.726 115.194 221.168 117.196 221.168ZM119.296 217.192H114.858C114.914 216.156 115.628 214.938 117.07 214.938C118.61 214.938 119.282 216.184 119.296 217.192ZM128.934 221L131.09 214.238H129.998L128.346 219.628L126.568 214.238H125.672L123.894 219.628L122.242 214.238H121.15L123.306 221H124.356L126.12 215.568L127.884 221H128.934ZM137.592 221V216.352C137.592 214.714 136.402 214.07 134.974 214.07C133.868 214.07 133 214.434 132.272 215.19L132.762 215.918C133.364 215.274 134.022 214.98 134.834 214.98C135.814 214.98 136.542 215.498 136.542 216.408V217.626C135.996 216.996 135.226 216.702 134.302 216.702C133.154 216.702 131.936 217.416 131.936 218.928C131.936 220.398 133.154 221.168 134.302 221.168C135.212 221.168 135.982 220.846 136.542 220.23V221H137.592ZM134.68 220.412C133.7 220.412 133.014 219.796 133.014 218.942C133.014 218.074 133.7 217.458 134.68 217.458C135.422 217.458 136.136 217.738 136.542 218.298V219.572C136.136 220.132 135.422 220.412 134.68 220.412ZM140.746 221V216.212C141.054 215.666 141.936 215.134 142.58 215.134C142.748 215.134 142.874 215.148 143 215.176V214.098C142.076 214.098 141.292 214.616 140.746 215.33V214.238H139.696V221H140.746ZM150.268 221V211.662H149.218V215.26C148.672 214.518 147.846 214.07 146.936 214.07C145.158 214.07 143.926 215.47 143.926 217.626C143.926 219.824 145.172 221.168 146.936 221.168C147.888 221.168 148.714 220.678 149.218 219.992V221H150.268ZM147.188 220.23C145.83 220.23 145.018 219.124 145.018 217.626C145.018 216.128 145.83 215.008 147.188 215.008C148.028 215.008 148.84 215.512 149.218 216.1V219.166C148.84 219.754 148.028 220.23 147.188 220.23ZM154.512 221.168C156.262 221.168 157.172 220.258 157.172 219.124C157.172 216.492 152.986 217.472 152.986 215.988C152.986 215.386 153.56 214.924 154.484 214.924C155.352 214.924 156.094 215.288 156.5 215.778L156.99 215.05C156.444 214.504 155.632 214.07 154.484 214.07C152.874 214.07 151.964 214.966 151.964 216.016C151.964 218.522 156.15 217.514 156.15 219.152C156.15 219.824 155.59 220.314 154.554 220.314C153.63 220.314 152.776 219.866 152.328 219.348L151.782 220.104C152.468 220.832 153.406 221.168 154.512 221.168ZM166.758 221L170.524 211.662H169.194L166.044 219.726L162.894 211.662H161.564L165.316 221H166.758ZM176.092 221V216.352C176.092 214.714 174.902 214.07 173.474 214.07C172.368 214.07 171.5 214.434 170.772 215.19L171.262 215.918C171.864 215.274 172.522 214.98 173.334 214.98C174.314 214.98 175.042 215.498 175.042 216.408V217.626C174.496 216.996 173.726 216.702 172.802 216.702C171.654 216.702 170.436 217.416 170.436 218.928C170.436 220.398 171.654 221.168 172.802 221.168C173.712 221.168 174.482 220.846 175.042 220.23V221H176.092ZM173.18 220.412C172.2 220.412 171.514 219.796 171.514 218.942C171.514 218.074 172.2 217.458 173.18 217.458C173.922 217.458 174.636 217.738 175.042 218.298V219.572C174.636 220.132 173.922 220.412 173.18 220.412ZM179.246 221V211.662H178.196V221H179.246ZM186.955 221V214.238H185.905V219.208C185.513 219.754 184.729 220.23 183.903 220.23C182.993 220.23 182.391 219.88 182.391 218.69V214.238H181.341V219.012C181.341 220.482 182.083 221.168 183.497 221.168C184.505 221.168 185.387 220.636 185.905 220.048V221H186.955ZM192.104 221.168C193.21 221.168 194.12 220.804 194.792 220.132L194.288 219.446C193.756 219.992 192.972 220.3 192.202 220.3C190.746 220.3 189.85 219.236 189.766 217.962H195.24V217.696C195.24 215.666 194.036 214.07 191.992 214.07C190.06 214.07 188.66 215.652 188.66 217.612C188.66 219.726 190.102 221.168 192.104 221.168ZM194.204 217.192H189.766C189.822 216.156 190.536 214.938 191.978 214.938C193.518 214.938 194.19 216.184 194.204 217.192Z" fill="#838383"/>

<path d="M36.116 274.168C38.636 274.168 39.56 272.782 39.56 271.424C39.56 267.938 34.03 269.142 34.03 267.042C34.03 266.16 34.828 265.558 35.948 265.558C36.97 265.558 37.95 265.908 38.65 266.678L39.35 265.824C38.566 264.998 37.46 264.522 36.032 264.522C34.198 264.522 32.826 265.572 32.826 267.112C32.826 270.444 38.356 269.114 38.356 271.522C38.356 272.236 37.824 273.132 36.158 273.132C34.842 273.132 33.834 272.488 33.218 271.802L32.532 272.684C33.302 273.552 34.492 274.168 36.116 274.168ZM44.2351 274.168C45.4671 274.168 46.1951 273.664 46.7131 272.992L46.0131 272.348C45.5651 272.95 44.9911 273.23 44.2911 273.23C42.8491 273.23 41.9531 272.11 41.9531 270.612C41.9531 269.114 42.8491 268.008 44.2911 268.008C44.9911 268.008 45.5651 268.274 46.0131 268.89L46.7131 268.246C46.1951 267.574 45.4671 267.07 44.2351 267.07C42.2191 267.07 40.8611 268.61 40.8611 270.612C40.8611 272.628 42.2191 274.168 44.2351 274.168ZM49.2348 274V269.212C49.5428 268.666 50.4248 268.134 51.0688 268.134C51.2368 268.134 51.3628 268.148 51.4888 268.176V267.098C50.5648 267.098 49.7808 267.616 49.2348 268.33V267.238H48.1848V274H49.2348ZM58.0839 274V269.352C58.0839 267.714 56.8939 267.07 55.4659 267.07C54.3599 267.07 53.4919 267.434 52.7639 268.19L53.2539 268.918C53.8559 268.274 54.5139 267.98 55.3259 267.98C56.3059 267.98 57.0339 268.498 57.0339 269.408V270.626C56.4879 269.996 55.7179 269.702 54.7939 269.702C53.6459 269.702 52.4279 270.416 52.4279 271.928C52.4279 273.398 53.6459 274.168 54.7939 274.168C55.7039 274.168 56.4739 273.846 57.0339 273.23V274H58.0839ZM55.1719 273.412C54.1919 273.412 53.5059 272.796 53.5059 271.942C53.5059 271.074 54.1919 270.458 55.1719 270.458C55.9139 270.458 56.6279 270.738 57.0339 271.298V272.572C56.6279 273.132 55.9139 273.412 55.1719 273.412ZM61.8967 274.168C62.5127 274.168 62.8907 273.986 63.1567 273.734L62.8487 272.95C62.7087 273.104 62.4287 273.23 62.1347 273.23C61.6727 273.23 61.4487 272.866 61.4487 272.362V268.162H62.8207V267.238H61.4487V265.39H60.3987V267.238H59.2787V268.162H60.3987V272.586C60.3987 273.594 60.9027 274.168 61.8967 274.168ZM67.2859 274.168C68.5179 274.168 69.2459 273.664 69.7639 272.992L69.0639 272.348C68.6159 272.95 68.0419 273.23 67.3419 273.23C65.8999 273.23 65.0039 272.11 65.0039 270.612C65.0039 269.114 65.8999 268.008 67.3419 268.008C68.0419 268.008 68.6159 268.274 69.0639 268.89L69.7639 268.246C69.2459 267.574 68.5179 267.07 67.2859 267.07C65.2699 267.07 63.9119 268.61 63.9119 270.612C63.9119 272.628 65.2699 274.168 67.2859 274.168ZM76.8635 274V269.226C76.8635 267.756 76.1215 267.07 74.7075 267.07C73.6855 267.07 72.7615 267.658 72.2855 268.218V264.662H71.2355V274H72.2855V269.058C72.6915 268.512 73.4755 268.008 74.2875 268.008C75.1975 268.008 75.8135 268.358 75.8135 269.548V274H76.8635ZM87.0355 274.168C88.6875 274.168 89.8075 273.384 90.5915 272.32L89.5975 271.774C89.0655 272.572 88.0995 273.132 87.0355 273.132C84.9915 273.132 83.4375 271.55 83.4375 269.338C83.4375 267.112 84.9915 265.544 87.0355 265.544C88.0995 265.544 89.0655 266.118 89.5975 266.902L90.5775 266.356C89.8355 265.306 88.6875 264.508 87.0355 264.508C84.3475 264.508 82.2335 266.468 82.2335 269.338C82.2335 272.208 84.3475 274.168 87.0355 274.168ZM97.3085 274V269.352C97.3085 267.714 96.1185 267.07 94.6905 267.07C93.5845 267.07 92.7165 267.434 91.9885 268.19L92.4785 268.918C93.0805 268.274 93.7385 267.98 94.5505 267.98C95.5305 267.98 96.2585 268.498 96.2585 269.408V270.626C95.7125 269.996 94.9425 269.702 94.0185 269.702C92.8705 269.702 91.6525 270.416 91.6525 271.928C91.6525 273.398 92.8705 274.168 94.0185 274.168C94.9285 274.168 95.6985 273.846 96.2585 273.23V274H97.3085ZM94.3965 273.412C93.4165 273.412 92.7305 272.796 92.7305 271.942C92.7305 271.074 93.4165 270.458 94.3965 270.458C95.1385 270.458 95.8525 270.738 96.2585 271.298V272.572C95.8525 273.132 95.1385 273.412 94.3965 273.412ZM100.463 274V269.212C100.771 268.666 101.653 268.134 102.297 268.134C102.465 268.134 102.591 268.148 102.717 268.176V267.098C101.793 267.098 101.009 267.616 100.463 268.33V267.238H99.4133V274H100.463ZM109.984 274V264.662H108.934V268.26C108.388 267.518 107.562 267.07 106.652 267.07C104.874 267.07 103.642 268.47 103.642 270.626C103.642 272.824 104.888 274.168 106.652 274.168C107.604 274.168 108.43 273.678 108.934 272.992V274H109.984ZM106.904 273.23C105.546 273.23 104.734 272.124 104.734 270.626C104.734 269.128 105.546 268.008 106.904 268.008C107.744 268.008 108.556 268.512 108.934 269.1V272.166C108.556 272.754 107.744 273.23 106.904 273.23Z" fill="#838383"/>
<path d="M34.415 296V291.44H39.62V290.33H34.415V287.105H39.725V285.995H33.17V296H34.415ZM42.4971 296V290.87C42.8271 290.285 43.7721 289.715 44.4621 289.715C44.6421 289.715 44.7771 289.73 44.9121 289.76V288.605C43.9221 288.605 43.0821 289.16 42.4971 289.925V288.755H41.3721V296H42.4971ZM49.5932 296.18C50.7782 296.18 51.7532 295.79 52.4732 295.07L51.9332 294.335C51.3632 294.92 50.5232 295.25 49.6982 295.25C48.1382 295.25 47.1782 294.11 47.0882 292.745H52.9532V292.46C52.9532 290.285 51.6632 288.575 49.4732 288.575C47.4032 288.575 45.9032 290.27 45.9032 292.37C45.9032 294.635 47.4482 296.18 49.5932 296.18ZM51.8432 291.92H47.0882C47.1482 290.81 47.9132 289.505 49.4582 289.505C51.1082 289.505 51.8282 290.84 51.8432 291.92ZM58.0454 296.18C59.2304 296.18 60.2054 295.79 60.9254 295.07L60.3854 294.335C59.8154 294.92 58.9754 295.25 58.1504 295.25C56.5904 295.25 55.6304 294.11 55.5404 292.745H61.4054V292.46C61.4054 290.285 60.1154 288.575 57.9254 288.575C55.8554 288.575 54.3554 290.27 54.3554 292.37C54.3554 294.635 55.9004 296.18 58.0454 296.18ZM60.2954 291.92H55.5404C55.6004 290.81 56.3654 289.505 57.9104 289.505C59.5604 289.505 60.2804 290.84 60.2954 291.92ZM68.3847 296V292.025H71.1597C73.1397 292.025 74.2947 290.645 74.2947 289.01C74.2947 287.375 73.1697 285.995 71.1597 285.995H67.1397V296H68.3847ZM71.0097 290.915H68.3847V287.105H71.0097C72.1947 287.105 73.0047 287.885 73.0047 289.01C73.0047 290.135 72.1947 290.915 71.0097 290.915ZM80.0234 296.18C82.7384 296.18 84.1034 294.59 84.1034 292.1V285.995H82.8584V292.085C82.8584 293.915 81.8684 295.07 80.0234 295.07C78.1784 295.07 77.1884 293.915 77.1884 292.085V285.995H75.9434V292.115C75.9434 294.575 77.3084 296.18 80.0234 296.18ZM91.1864 296.18C92.9564 296.18 94.1564 295.34 94.9964 294.2L93.9314 293.615C93.3614 294.47 92.3264 295.07 91.1864 295.07C88.9964 295.07 87.3314 293.375 87.3314 291.005C87.3314 288.62 88.9964 286.94 91.1864 286.94C92.3264 286.94 93.3614 287.555 93.9314 288.395L94.9814 287.81C94.1864 286.685 92.9564 285.83 91.1864 285.83C88.3064 285.83 86.0414 287.93 86.0414 291.005C86.0414 294.08 88.3064 296.18 91.1864 296.18ZM105.19 296.18C106.96 296.18 108.16 295.34 109 294.2L107.935 293.615C107.365 294.47 106.33 295.07 105.19 295.07C103 295.07 101.335 293.375 101.335 291.005C101.335 288.62 103 286.94 105.19 286.94C106.33 286.94 107.365 287.555 107.935 288.395L108.985 287.81C108.19 286.685 106.96 285.83 105.19 285.83C102.31 285.83 100.045 287.93 100.045 291.005C100.045 294.08 102.31 296.18 105.19 296.18ZM116.572 296V290.885C116.572 289.31 115.777 288.575 114.262 288.575C113.167 288.575 112.177 289.205 111.667 289.805V285.995H110.542V296H111.667V290.705C112.102 290.12 112.942 289.58 113.812 289.58C114.787 289.58 115.447 289.955 115.447 291.23V296H116.572ZM122.088 296.18C123.273 296.18 124.248 295.79 124.968 295.07L124.428 294.335C123.858 294.92 123.018 295.25 122.193 295.25C120.633 295.25 119.673 294.11 119.583 292.745H125.448V292.46C125.448 290.285 124.158 288.575 121.968 288.575C119.898 288.575 118.398 290.27 118.398 292.37C118.398 294.635 119.943 296.18 122.088 296.18ZM124.338 291.92H119.583C119.643 290.81 120.408 289.505 121.953 289.505C123.603 289.505 124.323 290.84 124.338 291.92ZM130.466 296.18C131.786 296.18 132.566 295.64 133.121 294.92L132.371 294.23C131.891 294.875 131.276 295.175 130.526 295.175C128.981 295.175 128.021 293.975 128.021 292.37C128.021 290.765 128.981 289.58 130.526 289.58C131.276 289.58 131.891 289.865 132.371 290.525L133.121 289.835C132.566 289.115 131.786 288.575 130.466 288.575C128.306 288.575 126.851 290.225 126.851 292.37C126.851 294.53 128.306 296.18 130.466 296.18ZM141.072 296L137.847 292.04L141.057 288.755H139.632L135.822 292.61V285.995H134.697V296H135.822V293.93L137.022 292.745L139.632 296H141.072ZM155.315 296L158.165 285.995H156.785L154.58 294.335L152.285 285.995H151.25L148.955 294.335L146.735 285.995H145.355L148.205 296H149.555L151.76 287.93L153.965 296H155.315ZM162.076 296.18C164.281 296.18 165.661 294.47 165.661 292.37C165.661 290.27 164.281 288.575 162.076 288.575C159.871 288.575 158.491 290.27 158.491 292.37C158.491 294.47 159.871 296.18 162.076 296.18ZM162.076 295.175C160.531 295.175 159.661 293.855 159.661 292.37C159.661 290.9 160.531 289.58 162.076 289.58C163.621 289.58 164.476 290.9 164.476 292.37C164.476 293.855 163.621 295.175 162.076 295.175ZM168.62 296V290.87C168.95 290.285 169.895 289.715 170.585 289.715C170.765 289.715 170.9 289.73 171.035 289.76V288.605C170.045 288.605 169.205 289.16 168.62 289.925V288.755H167.495V296H168.62ZM174.276 296.18C174.936 296.18 175.341 295.985 175.626 295.715L175.296 294.875C175.146 295.04 174.846 295.175 174.531 295.175C174.036 295.175 173.796 294.785 173.796 294.245V289.745H175.266V288.755H173.796V286.775H172.671V288.755H171.471V289.745H172.671V294.485C172.671 295.565 173.211 296.18 174.276 296.18ZM182.885 296V290.885C182.885 289.31 182.09 288.575 180.575 288.575C179.48 288.575 178.49 289.205 177.98 289.805V285.995H176.855V296H177.98V290.705C178.415 290.12 179.255 289.58 180.125 289.58C181.1 289.58 181.76 289.955 181.76 291.23V296H182.885ZM193.483 289.562C193.41 290.24 193.147 290.786 192.694 291.203C192.241 291.62 191.562 291.896 190.655 292.031L194.038 296H192.397L189.022 292.055L189.179 290.914H189.897C190.153 290.914 190.377 290.904 190.569 290.883C190.762 290.862 190.929 290.833 191.069 290.797C191.215 290.755 191.34 290.706 191.444 290.648C191.549 290.586 191.645 290.516 191.733 290.438C191.963 290.219 192.111 289.927 192.179 289.562H189.022V288.422H192.163C192.121 288.219 192.054 288.047 191.96 287.906C191.871 287.76 191.754 287.63 191.608 287.516C191.463 287.401 191.27 287.318 191.03 287.266C190.796 287.214 190.481 287.188 190.085 287.188H189.022V286.047H195.772V287.188H192.772C192.955 287.318 193.106 287.49 193.226 287.703C193.345 287.917 193.429 288.156 193.476 288.422H195.772V289.562H193.483ZM201.202 296.18C203.212 296.18 204.757 294.92 204.757 292.88C204.757 290.825 203.242 289.685 201.577 289.685C200.572 289.685 199.717 290.105 199.237 290.585V287.105H204.112V285.995H197.992V291.395L198.907 291.71C199.582 291.05 200.332 290.765 201.217 290.765C202.567 290.765 203.512 291.605 203.512 292.925C203.512 294.14 202.567 295.07 201.202 295.07C199.972 295.07 199.102 294.59 198.442 293.75L197.677 294.575C198.427 295.565 199.507 296.18 201.202 296.18ZM210.124 296.18C212.854 296.18 213.949 293.435 213.949 291.005C213.949 288.56 212.854 285.845 210.124 285.845C207.379 285.845 206.299 288.56 206.299 291.005C206.299 293.435 207.379 296.18 210.124 296.18ZM210.124 295.07C208.219 295.07 207.574 293 207.574 291.005C207.574 289.01 208.219 286.955 210.124 286.955C212.029 286.955 212.674 289.01 212.674 291.005C212.674 293 212.029 295.07 210.124 295.07ZM215.604 296.3L219.159 285.695H218.274L214.719 296.3H215.604ZM223.207 292.865V291.875H219.607V292.865H223.207Z" fill="#575757"/>
<path d="M42.234 327V317.662H40.568L37.656 324.69L34.758 317.662H33.092V327H34.254V319.314L37.418 327H37.894L41.072 319.314V327H42.234ZM49.6483 327V322.352C49.6483 320.714 48.4583 320.07 47.0303 320.07C45.9243 320.07 45.0563 320.434 44.3283 321.19L44.8183 321.918C45.4203 321.274 46.0783 320.98 46.8903 320.98C47.8703 320.98 48.5983 321.498 48.5983 322.408V323.626C48.0523 322.996 47.2823 322.702 46.3583 322.702C45.2103 322.702 43.9923 323.416 43.9923 324.928C43.9923 326.398 45.2103 327.168 46.3583 327.168C47.2683 327.168 48.0383 326.846 48.5983 326.23V327H49.6483ZM46.7363 326.412C45.7563 326.412 45.0703 325.796 45.0703 324.942C45.0703 324.074 45.7563 323.458 46.7363 323.458C47.4783 323.458 48.1923 323.738 48.5983 324.298V325.572C48.1923 326.132 47.4783 326.412 46.7363 326.412ZM57.3671 327V322.254C57.3671 320.784 56.6251 320.07 55.2111 320.07C54.2031 320.07 53.2791 320.658 52.8031 321.218V320.238H51.7531V327H52.8031V322.058C53.1951 321.512 53.9791 321.008 54.8051 321.008C55.7151 321.008 56.3171 321.386 56.3171 322.576V327H57.3671ZM65.4141 327V317.662H64.3641V321.26C63.8181 320.518 62.9921 320.07 62.0821 320.07C60.3041 320.07 59.0721 321.47 59.0721 323.626C59.0721 325.824 60.3181 327.168 62.0821 327.168C63.0341 327.168 63.8601 326.678 64.3641 325.992V327H65.4141ZM62.3341 326.23C60.9761 326.23 60.1641 325.124 60.1641 323.626C60.1641 322.128 60.9761 321.008 62.3341 321.008C63.1741 321.008 63.9861 321.512 64.3641 322.1V325.166C63.9861 325.754 63.1741 326.23 62.3341 326.23ZM72.7948 327V322.352C72.7948 320.714 71.6048 320.07 70.1768 320.07C69.0708 320.07 68.2028 320.434 67.4748 321.19L67.9648 321.918C68.5668 321.274 69.2248 320.98 70.0368 320.98C71.0168 320.98 71.7448 321.498 71.7448 322.408V323.626C71.1988 322.996 70.4288 322.702 69.5048 322.702C68.3568 322.702 67.1388 323.416 67.1388 324.928C67.1388 326.398 68.3568 327.168 69.5048 327.168C70.4148 327.168 71.1848 326.846 71.7448 326.23V327H72.7948ZM69.8828 326.412C68.9028 326.412 68.2168 325.796 68.2168 324.942C68.2168 324.074 68.9028 323.458 69.8828 323.458C70.6248 323.458 71.3388 323.738 71.7448 324.298V325.572C71.3388 326.132 70.6248 326.412 69.8828 326.412ZM76.6076 327.168C77.2236 327.168 77.6016 326.986 77.8676 326.734L77.5596 325.95C77.4196 326.104 77.1396 326.23 76.8456 326.23C76.3836 326.23 76.1596 325.866 76.1596 325.362V321.162H77.5316V320.238H76.1596V318.39H75.1096V320.238H73.9896V321.162H75.1096V325.586C75.1096 326.594 75.6136 327.168 76.6076 327.168ZM81.9688 327.168C84.0268 327.168 85.3148 325.572 85.3148 323.612C85.3148 321.652 84.0268 320.07 81.9688 320.07C79.9108 320.07 78.6228 321.652 78.6228 323.612C78.6228 325.572 79.9108 327.168 81.9688 327.168ZM81.9688 326.23C80.5268 326.23 79.7148 324.998 79.7148 323.612C79.7148 322.24 80.5268 321.008 81.9688 321.008C83.4108 321.008 84.2088 322.24 84.2088 323.612C84.2088 324.998 83.4108 326.23 81.9688 326.23ZM88.0766 327V322.212C88.3846 321.666 89.2666 321.134 89.9106 321.134C90.0786 321.134 90.2046 321.148 90.3306 321.176V320.098C89.4066 320.098 88.6226 320.616 88.0766 321.33V320.238H87.0266V327H88.0766ZM91.2697 329.646C91.4657 329.702 91.8157 329.744 92.0397 329.744C92.9357 329.73 93.6217 329.352 94.0277 328.372L97.4157 320.238H96.2677L94.0277 325.782L91.7737 320.238H90.6397L93.4677 327.07L93.0197 328.092C92.7817 328.652 92.4737 328.806 92.0117 328.806C91.8437 328.806 91.5917 328.764 91.4377 328.694L91.2697 329.646ZM106.39 327L110.156 317.662H108.826L105.676 325.726L102.526 317.662H101.196L104.948 327H106.39ZM113.455 327.168C115.513 327.168 116.801 325.572 116.801 323.612C116.801 321.652 115.513 320.07 113.455 320.07C111.397 320.07 110.109 321.652 110.109 323.612C110.109 325.572 111.397 327.168 113.455 327.168ZM113.455 326.23C112.013 326.23 111.201 324.998 111.201 323.612C111.201 322.24 112.013 321.008 113.455 321.008C114.897 321.008 115.695 322.24 115.695 323.612C115.695 324.998 114.897 326.23 113.455 326.23ZM124.127 327V320.238H123.077V325.208C122.685 325.754 121.901 326.23 121.075 326.23C120.165 326.23 119.563 325.88 119.563 324.69V320.238H118.513V325.012C118.513 326.482 119.255 327.168 120.669 327.168C121.677 327.168 122.559 326.636 123.077 326.048V327H124.127ZM129.206 327.168C130.438 327.168 131.166 326.664 131.684 325.992L130.984 325.348C130.536 325.95 129.962 326.23 129.262 326.23C127.82 326.23 126.924 325.11 126.924 323.612C126.924 322.114 127.82 321.008 129.262 321.008C129.962 321.008 130.536 321.274 130.984 321.89L131.684 321.246C131.166 320.574 130.438 320.07 129.206 320.07C127.19 320.07 125.832 321.61 125.832 323.612C125.832 325.628 127.19 327.168 129.206 327.168ZM138.783 327V322.226C138.783 320.756 138.041 320.07 136.627 320.07C135.605 320.07 134.681 320.658 134.205 321.218V317.662H133.155V327H134.205V322.058C134.611 321.512 135.395 321.008 136.207 321.008C137.117 321.008 137.733 321.358 137.733 322.548V327H138.783ZM143.932 327.168C145.038 327.168 145.948 326.804 146.62 326.132L146.116 325.446C145.584 325.992 144.8 326.3 144.03 326.3C142.574 326.3 141.678 325.236 141.594 323.962H147.068V323.696C147.068 321.666 145.864 320.07 143.82 320.07C141.888 320.07 140.488 321.652 140.488 323.612C140.488 325.726 141.93 327.168 143.932 327.168ZM146.032 323.192H141.594C141.65 322.156 142.364 320.938 143.806 320.938C145.346 320.938 146.018 322.184 146.032 323.192ZM149.819 327V322.212C150.127 321.666 151.009 321.134 151.653 321.134C151.821 321.134 151.947 321.148 152.073 321.176V320.098C151.149 320.098 150.365 320.616 149.819 321.33V320.238H148.769V327H149.819Z" fill="#838383"/>
<path d="M34.415 349V344.44H39.62V343.33H34.415V340.105H39.725V338.995H33.17V349H34.415ZM42.4971 349V343.87C42.8271 343.285 43.7721 342.715 44.4621 342.715C44.6421 342.715 44.7771 342.73 44.9121 342.76V341.605C43.9221 341.605 43.0821 342.16 42.4971 342.925V341.755H41.3721V349H42.4971ZM49.5932 349.18C50.7782 349.18 51.7532 348.79 52.4732 348.07L51.9332 347.335C51.3632 347.92 50.5232 348.25 49.6982 348.25C48.1382 348.25 47.1782 347.11 47.0882 345.745H52.9532V345.46C52.9532 343.285 51.6632 341.575 49.4732 341.575C47.4032 341.575 45.9032 343.27 45.9032 345.37C45.9032 347.635 47.4482 349.18 49.5932 349.18ZM51.8432 344.92H47.0882C47.1482 343.81 47.9132 342.505 49.4582 342.505C51.1082 342.505 51.8282 343.84 51.8432 344.92ZM58.0454 349.18C59.2304 349.18 60.2054 348.79 60.9254 348.07L60.3854 347.335C59.8154 347.92 58.9754 348.25 58.1504 348.25C56.5904 348.25 55.6304 347.11 55.5404 345.745H61.4054V345.46C61.4054 343.285 60.1154 341.575 57.9254 341.575C55.8554 341.575 54.3554 343.27 54.3554 345.37C54.3554 347.635 55.9004 349.18 58.0454 349.18ZM60.2954 344.92H55.5404C55.6004 343.81 56.3654 342.505 57.9104 342.505C59.5604 342.505 60.2804 343.84 60.2954 344.92ZM68.3847 349V345.025H71.1597C73.1397 345.025 74.2947 343.645 74.2947 342.01C74.2947 340.375 73.1697 338.995 71.1597 338.995H67.1397V349H68.3847ZM71.0097 343.915H68.3847V340.105H71.0097C72.1947 340.105 73.0047 340.885 73.0047 342.01C73.0047 343.135 72.1947 343.915 71.0097 343.915ZM80.0234 349.18C82.7384 349.18 84.1034 347.59 84.1034 345.1V338.995H82.8584V345.085C82.8584 346.915 81.8684 348.07 80.0234 348.07C78.1784 348.07 77.1884 346.915 77.1884 345.085V338.995H75.9434V345.115C75.9434 347.575 77.3084 349.18 80.0234 349.18ZM91.1864 349.18C92.9564 349.18 94.1564 348.34 94.9964 347.2L93.9314 346.615C93.3614 347.47 92.3264 348.07 91.1864 348.07C88.9964 348.07 87.3314 346.375 87.3314 344.005C87.3314 341.62 88.9964 339.94 91.1864 339.94C92.3264 339.94 93.3614 340.555 93.9314 341.395L94.9814 340.81C94.1864 339.685 92.9564 338.83 91.1864 338.83C88.3064 338.83 86.0414 340.93 86.0414 344.005C86.0414 347.08 88.3064 349.18 91.1864 349.18ZM105.19 349.18C106.96 349.18 108.16 348.34 109 347.2L107.935 346.615C107.365 347.47 106.33 348.07 105.19 348.07C103 348.07 101.335 346.375 101.335 344.005C101.335 341.62 103 339.94 105.19 339.94C106.33 339.94 107.365 340.555 107.935 341.395L108.985 340.81C108.19 339.685 106.96 338.83 105.19 338.83C102.31 338.83 100.045 340.93 100.045 344.005C100.045 347.08 102.31 349.18 105.19 349.18ZM116.572 349V343.885C116.572 342.31 115.777 341.575 114.262 341.575C113.167 341.575 112.177 342.205 111.667 342.805V338.995H110.542V349H111.667V343.705C112.102 343.12 112.942 342.58 113.812 342.58C114.787 342.58 115.447 342.955 115.447 344.23V349H116.572ZM122.088 349.18C123.273 349.18 124.248 348.79 124.968 348.07L124.428 347.335C123.858 347.92 123.018 348.25 122.193 348.25C120.633 348.25 119.673 347.11 119.583 345.745H125.448V345.46C125.448 343.285 124.158 341.575 121.968 341.575C119.898 341.575 118.398 343.27 118.398 345.37C118.398 347.635 119.943 349.18 122.088 349.18ZM124.338 344.92H119.583C119.643 343.81 120.408 342.505 121.953 342.505C123.603 342.505 124.323 343.84 124.338 344.92ZM130.466 349.18C131.786 349.18 132.566 348.64 133.121 347.92L132.371 347.23C131.891 347.875 131.276 348.175 130.526 348.175C128.981 348.175 128.021 346.975 128.021 345.37C128.021 343.765 128.981 342.58 130.526 342.58C131.276 342.58 131.891 342.865 132.371 343.525L133.121 342.835C132.566 342.115 131.786 341.575 130.466 341.575C128.306 341.575 126.851 343.225 126.851 345.37C126.851 347.53 128.306 349.18 130.466 349.18ZM141.072 349L137.847 345.04L141.057 341.755H139.632L135.822 345.61V338.995H134.697V349H135.822V346.93L137.022 345.745L139.632 349H141.072ZM155.315 349L158.165 338.995H156.785L154.58 347.335L152.285 338.995H151.25L148.955 347.335L146.735 338.995H145.355L148.205 349H149.555L151.76 340.93L153.965 349H155.315ZM162.076 349.18C164.281 349.18 165.661 347.47 165.661 345.37C165.661 343.27 164.281 341.575 162.076 341.575C159.871 341.575 158.491 343.27 158.491 345.37C158.491 347.47 159.871 349.18 162.076 349.18ZM162.076 348.175C160.531 348.175 159.661 346.855 159.661 345.37C159.661 343.9 160.531 342.58 162.076 342.58C163.621 342.58 164.476 343.9 164.476 345.37C164.476 346.855 163.621 348.175 162.076 348.175ZM168.62 349V343.87C168.95 343.285 169.895 342.715 170.585 342.715C170.765 342.715 170.9 342.73 171.035 342.76V341.605C170.045 341.605 169.205 342.16 168.62 342.925V341.755H167.495V349H168.62ZM174.276 349.18C174.936 349.18 175.341 348.985 175.626 348.715L175.296 347.875C175.146 348.04 174.846 348.175 174.531 348.175C174.036 348.175 173.796 347.785 173.796 347.245V342.745H175.266V341.755H173.796V339.775H172.671V341.755H171.471V342.745H172.671V347.485C172.671 348.565 173.211 349.18 174.276 349.18ZM182.885 349V343.885C182.885 342.31 182.09 341.575 180.575 341.575C179.48 341.575 178.49 342.205 177.98 342.805V338.995H176.855V349H177.98V343.705C178.415 343.12 179.255 342.58 180.125 342.58C181.1 342.58 181.76 342.955 181.76 344.23V349H182.885ZM193.483 342.562C193.41 343.24 193.147 343.786 192.694 344.203C192.241 344.62 191.562 344.896 190.655 345.031L194.038 349H192.397L189.022 345.055L189.179 343.914H189.897C190.153 343.914 190.377 343.904 190.569 343.883C190.762 343.862 190.929 343.833 191.069 343.797C191.215 343.755 191.34 343.706 191.444 343.648C191.549 343.586 191.645 343.516 191.733 343.438C191.963 343.219 192.111 342.927 192.179 342.562H189.022V341.422H192.163C192.121 341.219 192.054 341.047 191.96 340.906C191.871 340.76 191.754 340.63 191.608 340.516C191.463 340.401 191.27 340.318 191.03 340.266C190.796 340.214 190.481 340.188 190.085 340.188H189.022V339.047H195.772V340.188H192.772C192.955 340.318 193.106 340.49 193.226 340.703C193.345 340.917 193.429 341.156 193.476 341.422H195.772V342.562H193.483ZM201.202 349.18C203.212 349.18 204.757 347.92 204.757 345.88C204.757 343.825 203.242 342.685 201.577 342.685C200.572 342.685 199.717 343.105 199.237 343.585V340.105H204.112V338.995H197.992V344.395L198.907 344.71C199.582 344.05 200.332 343.765 201.217 343.765C202.567 343.765 203.512 344.605 203.512 345.925C203.512 347.14 202.567 348.07 201.202 348.07C199.972 348.07 199.102 347.59 198.442 346.75L197.677 347.575C198.427 348.565 199.507 349.18 201.202 349.18ZM210.124 349.18C212.854 349.18 213.949 346.435 213.949 344.005C213.949 341.56 212.854 338.845 210.124 338.845C207.379 338.845 206.299 341.56 206.299 344.005C206.299 346.435 207.379 349.18 210.124 349.18ZM210.124 348.07C208.219 348.07 207.574 346 207.574 344.005C207.574 342.01 208.219 339.955 210.124 339.955C212.029 339.955 212.674 342.01 212.674 344.005C212.674 346 212.029 348.07 210.124 348.07ZM215.604 349.3L219.159 338.695H218.274L214.719 349.3H215.604ZM223.207 345.865V344.875H219.607V345.865H223.207Z" fill="#575757"/>
<path d="M228.868 221L226.348 217.192C227.622 217.08 228.77 216.156 228.77 214.476C228.77 212.754 227.552 211.662 225.844 211.662H222.092V221H223.254V217.29H225.116L227.496 221H228.868ZM225.704 216.268H223.254V212.698H225.704C226.81 212.698 227.566 213.426 227.566 214.476C227.566 215.526 226.81 216.268 225.704 216.268ZM233.196 221.168C234.302 221.168 235.212 220.804 235.884 220.132L235.38 219.446C234.848 219.992 234.064 220.3 233.294 220.3C231.838 220.3 230.942 219.236 230.858 217.962H236.332V217.696C236.332 215.666 235.128 214.07 233.084 214.07C231.152 214.07 229.752 215.652 229.752 217.612C229.752 219.726 231.194 221.168 233.196 221.168ZM235.296 217.192H230.858C230.914 216.156 231.628 214.938 233.07 214.938C234.61 214.938 235.282 216.184 235.296 217.192ZM244.934 221L247.09 214.238H245.998L244.346 219.628L242.568 214.238H241.672L239.894 219.628L238.242 214.238H237.15L239.306 221H240.356L242.12 215.568L243.884 221H244.934ZM253.592 221V216.352C253.592 214.714 252.402 214.07 250.974 214.07C249.868 214.07 249 214.434 248.272 215.19L248.762 215.918C249.364 215.274 250.022 214.98 250.834 214.98C251.814 214.98 252.542 215.498 252.542 216.408V217.626C251.996 216.996 251.226 216.702 250.302 216.702C249.154 216.702 247.936 217.416 247.936 218.928C247.936 220.398 249.154 221.168 250.302 221.168C251.212 221.168 251.982 220.846 252.542 220.23V221H253.592ZM250.68 220.412C249.7 220.412 249.014 219.796 249.014 218.942C249.014 218.074 249.7 217.458 250.68 217.458C251.422 217.458 252.136 217.738 252.542 218.298V219.572C252.136 220.132 251.422 220.412 250.68 220.412ZM256.746 221V216.212C257.054 215.666 257.936 215.134 258.58 215.134C258.748 215.134 258.874 215.148 259 215.176V214.098C258.076 214.098 257.292 214.616 256.746 215.33V214.238H255.696V221H256.746ZM266.268 221V211.662H265.218V215.26C264.672 214.518 263.846 214.07 262.936 214.07C261.158 214.07 259.926 215.47 259.926 217.626C259.926 219.824 261.172 221.168 262.936 221.168C263.888 221.168 264.714 220.678 265.218 219.992V221H266.268ZM263.188 220.23C261.83 220.23 261.018 219.124 261.018 217.626C261.018 216.128 261.83 215.008 263.188 215.008C264.028 215.008 264.84 215.512 265.218 216.1V219.166C264.84 219.754 264.028 220.23 263.188 220.23ZM270.512 221.168C272.262 221.168 273.172 220.258 273.172 219.124C273.172 216.492 268.986 217.472 268.986 215.988C268.986 215.386 269.56 214.924 270.484 214.924C271.352 214.924 272.094 215.288 272.5 215.778L272.99 215.05C272.444 214.504 271.632 214.07 270.484 214.07C268.874 214.07 267.964 214.966 267.964 216.016C267.964 218.522 272.15 217.514 272.15 219.152C272.15 219.824 271.59 220.314 270.554 220.314C269.63 220.314 268.776 219.866 268.328 219.348L267.782 220.104C268.468 220.832 269.406 221.168 270.512 221.168ZM282.786 221C284.494 221 285.488 219.978 285.488 218.48C285.488 217.36 284.662 216.338 283.668 216.184C284.522 216.002 285.306 215.218 285.306 214.042C285.306 212.642 284.312 211.662 282.688 211.662H278.53V221H282.786ZM282.492 215.708H279.692V212.698H282.492C283.542 212.698 284.102 213.37 284.102 214.21C284.102 215.064 283.542 215.708 282.492 215.708ZM282.548 219.964H279.692V216.744H282.548C283.696 216.744 284.284 217.5 284.284 218.354C284.284 219.348 283.64 219.964 282.548 219.964ZM292.57 221V216.352C292.57 214.714 291.38 214.07 289.952 214.07C288.846 214.07 287.978 214.434 287.25 215.19L287.74 215.918C288.342 215.274 289 214.98 289.812 214.98C290.792 214.98 291.52 215.498 291.52 216.408V217.626C290.974 216.996 290.204 216.702 289.28 216.702C288.132 216.702 286.914 217.416 286.914 218.928C286.914 220.398 288.132 221.168 289.28 221.168C290.19 221.168 290.96 220.846 291.52 220.23V221H292.57ZM289.658 220.412C288.678 220.412 287.992 219.796 287.992 218.942C287.992 218.074 288.678 217.458 289.658 217.458C290.4 217.458 291.114 217.738 291.52 218.298V219.572C291.114 220.132 290.4 220.412 289.658 220.412ZM295.725 221V211.662H294.675V221H295.725ZM303.098 221V216.352C303.098 214.714 301.908 214.07 300.48 214.07C299.374 214.07 298.506 214.434 297.778 215.19L298.268 215.918C298.87 215.274 299.528 214.98 300.34 214.98C301.32 214.98 302.048 215.498 302.048 216.408V217.626C301.502 216.996 300.732 216.702 299.808 216.702C298.66 216.702 297.442 217.416 297.442 218.928C297.442 220.398 298.66 221.168 299.808 221.168C300.718 221.168 301.488 220.846 302.048 220.23V221H303.098ZM300.186 220.412C299.206 220.412 298.52 219.796 298.52 218.942C298.52 218.074 299.206 217.458 300.186 217.458C300.928 217.458 301.642 217.738 302.048 218.298V219.572C301.642 220.132 300.928 220.412 300.186 220.412ZM310.816 221V216.254C310.816 214.784 310.074 214.07 308.66 214.07C307.652 214.07 306.728 214.658 306.252 215.218V214.238H305.202V221H306.252V216.058C306.644 215.512 307.428 215.008 308.254 215.008C309.164 215.008 309.766 215.386 309.766 216.576V221H310.816ZM315.895 221.168C317.127 221.168 317.855 220.664 318.373 219.992L317.673 219.348C317.225 219.95 316.651 220.23 315.951 220.23C314.509 220.23 313.613 219.11 313.613 217.612C313.613 216.114 314.509 215.008 315.951 215.008C316.651 215.008 317.225 215.274 317.673 215.89L318.373 215.246C317.855 214.574 317.127 214.07 315.895 214.07C313.879 214.07 312.521 215.61 312.521 217.612C312.521 219.628 313.879 221.168 315.895 221.168ZM322.897 221.168C324.003 221.168 324.913 220.804 325.585 220.132L325.081 219.446C324.549 219.992 323.765 220.3 322.995 220.3C321.539 220.3 320.643 219.236 320.559 217.962H326.033V217.696C326.033 215.666 324.829 214.07 322.785 214.07C320.853 214.07 319.453 215.652 319.453 217.612C319.453 219.726 320.895 221.168 322.897 221.168ZM324.997 217.192H320.559C320.615 216.156 321.329 214.938 322.771 214.938C324.311 214.938 324.983 216.184 324.997 217.192Z" fill="#838383"/>


<defs>
<filter id="filter0_d" x="0" y="0" width="355" height="526" filterUnits="userSpaceOnUse" color-interpolation-filters="sRGB">
<feFlood flood-opacity="0" result="BackgroundImageFix"/>
<feColorMatrix in="SourceAlpha" type="matrix" values="0 0 0 0 0 0 0 0 0 0 0 0 0 0 0 0 0 0 127 0" result="hardAlpha"/>
<feOffset dy="3"/>
<feGaussianBlur stdDeviation="6"/>
<feColorMatrix type="matrix" values="0 0 0 0 0 0 0 0 0 0 0 0 0 0 0 0 0 0 0.1 0"/>
<feBlend mode="normal" in2="BackgroundImageFix" result="effect1_dropShadow"/>
<feBlend mode="normal" in="SourceGraphic" in2="effect1_dropShadow" result="shape"/>
</filter>
<filter id="filter1_d" x="46" y="424" width="264" height="84" filterUnits="userSpaceOnUse" color-interpolation-filters="sRGB">
<feFlood flood-opacity="0" result="BackgroundImageFix"/>
<feColorMatrix in="SourceAlpha" type="matrix" values="0 0 0 0 0 0 0 0 0 0 0 0 0 0 0 0 0 0 127 0" result="hardAlpha"/>
<feOffset dy="3"/>
<feGaussianBlur stdDeviation="8.5"/>
<feColorMatrix type="matrix" values="0 0 0 0 0.229167 0 0 0 0 0.229167 0 0 0 0 0.229167 0 0 0 0.2 0"/>
<feBlend mode="normal" in2="BackgroundImageFix" result="effect1_dropShadow"/>
<feBlend mode="normal" in="SourceGraphic" in2="effect1_dropShadow" result="shape"/>
</filter>
<linearGradient id="paint0_linear" x1="178" y1="438" x2="178" y2="477" gradientUnits="userSpaceOnUse">
<stop stop-color="#7DAAED"/>
<stop offset="1" stop-color="#6299EC"/>
</linearGradient>
</defs>
</svg>
