<svg width="359" height="664" viewBox="0 0 359 664" fill="none" xmlns="http://www.w3.org/2000/svg" xmlns:xlink="http://www.w3.org/1999/xlink">
<g filter="url(#filter0_d)">
<path fill-rule="evenodd" clip-rule="evenodd" d="M14 17C14 13.6863 16.6863 11 20 11H339C342.314 11 345 13.6863 345 17V365.2C344.354 365.069 343.685 365 343 365C337.477 365 333 369.477 333 375C333 380.523 337.477 385 343 385C343.685 385 344.354 384.931 345 384.8V641C345 644.314 342.314 647 339 647H20C16.6863 647 14 644.314 14 641V384.8C14.6462 384.931 15.3151 385 16 385C21.5228 385 26 380.523 26 375C26 369.477 21.5228 365 16 365C15.3151 365 14.6462 365.069 14 365.2V17Z" fill="white"/>
</g>
<path d="M31.32 376.656V375.6H27.48V376.656H31.32ZM40.1169 376.656V375.6H36.2769V376.656H40.1169ZM48.9138 376.656V375.6H45.0738V376.656H48.9138ZM57.7106 376.656V375.6H53.8706V376.656H57.7106ZM66.5075 376.656V375.6H62.6675V376.656H66.5075ZM75.3044 376.656V375.6H71.4644V376.656H75.3044ZM84.1013 376.656V375.6H80.2613V376.656H84.1013ZM92.8981 376.656V375.6H89.0581V376.656H92.8981ZM101.695 376.656V375.6H97.855V376.656H101.695ZM110.492 376.656V375.6H106.652V376.656H110.492ZM119.289 376.656V375.6H115.449V376.656H119.289ZM128.086 376.656V375.6H124.246V376.656H128.086ZM136.883 376.656V375.6H133.043V376.656H136.883ZM145.679 376.656V375.6H141.839V376.656H145.679ZM154.476 376.656V375.6H150.636V376.656H154.476ZM163.273 376.656V375.6H159.433V376.656H163.273ZM172.07 376.656V375.6H168.23V376.656H172.07ZM180.867 376.656V375.6H177.027V376.656H180.867ZM189.664 376.656V375.6H185.824V376.656H189.664ZM198.461 376.656V375.6H194.621V376.656H198.461ZM207.258 376.656V375.6H203.418V376.656H207.258ZM216.054 376.656V375.6H212.214V376.656H216.054ZM224.851 376.656V375.6H221.011V376.656H224.851ZM233.648 376.656V375.6H229.808V376.656H233.648ZM242.445 376.656V375.6H238.605V376.656H242.445ZM251.242 376.656V375.6H247.402V376.656H251.242ZM260.039 376.656V375.6H256.199V376.656H260.039ZM268.836 376.656V375.6H264.996V376.656H268.836ZM277.633 376.656V375.6H273.793V376.656H277.633ZM286.429 376.656V375.6H282.589V376.656H286.429ZM295.226 376.656V375.6H291.386V376.656H295.226ZM304.023 376.656V375.6H300.183V376.656H304.023ZM312.82 376.656V375.6H308.98V376.656H312.82ZM321.617 376.656V375.6H317.777V376.656H321.617ZM330.414 376.656V375.6H326.574V376.656H330.414Z" fill="#E0E0E0"/>
<mask id="mask0" style="mask-type:alpha" maskUnits="userSpaceOnUse" x="108" y="417" width="143" height="144">
<circle cx="179.673" cy="489" r="71.3044" fill="#C4C4C4"/>
</mask>
<g mask="url(#mask0)">
<rect x="98.5645" y="415.022" width="167.122" height="147.957" fill="url(#pattern0)"/>
</g>
<path d="M95 407.891H95.8913M95.8913 407.891H107.478M95.8913 407.891V419.478M95.8913 407.891V407M263.457 407.891H262.565M262.565 407.891H250.978M262.565 407.891V419.478M262.565 407.891V407M95 570.109H95.8913M95.8913 570.109H107.478M95.8913 570.109V558.522M95.8913 570.109V571M263.457 570.109H262.565M262.565 570.109H250.978M262.565 570.109V558.522M262.565 570.109V571" stroke="#6299EC" stroke-width="2"/>
<path d="M130.992 616.276C134.419 616.276 136.834 614.275 136.834 611.078C136.834 607.95 134.511 606.133 131.935 606.133C130.463 606.133 129.198 606.731 128.462 607.467V603.028H135.822V600.659H125.771V609.238L127.68 609.79C128.646 608.87 129.727 608.456 131.038 608.456C132.924 608.456 134.12 609.537 134.12 611.193C134.12 612.688 132.901 613.884 130.969 613.884C129.244 613.884 127.864 613.24 126.829 612.067L125.288 613.907C126.53 615.379 128.347 616.276 130.992 616.276ZM144.875 616.276C149.176 616.276 151.016 612.205 151.016 608.341C151.016 604.477 149.176 600.429 144.875 600.429C140.574 600.429 138.734 604.477 138.734 608.341C138.734 612.205 140.574 616.276 144.875 616.276ZM144.875 613.884C142.368 613.884 141.471 611.262 141.471 608.341C141.471 605.42 142.368 602.821 144.875 602.821C147.382 602.821 148.279 605.42 148.279 608.341C148.279 611.262 147.382 613.884 144.875 613.884ZM164.223 616V613.631H157.415C161.532 610.526 164.131 607.996 164.131 605.167C164.131 602.108 161.532 600.429 158.565 600.429C156.426 600.429 154.264 601.257 152.907 602.89L154.471 604.661C155.437 603.557 156.817 602.821 158.611 602.821C160.014 602.821 161.394 603.557 161.394 605.167C161.394 607.375 159.071 609.376 153.114 613.884V616H164.223ZM176.292 616V612.527H178.339V610.158H176.292V600.659H172.589L166.287 610.365V612.527H173.601V616H176.292ZM173.601 610.158H168.932L173.601 603.074V610.158ZM185.976 616.276C189.403 616.276 191.818 614.275 191.818 611.078C191.818 607.95 189.495 606.133 186.919 606.133C185.447 606.133 184.182 606.731 183.446 607.467V603.028H190.806V600.659H180.755V609.238L182.664 609.79C183.63 608.87 184.711 608.456 186.022 608.456C187.908 608.456 189.104 609.537 189.104 611.193C189.104 612.688 187.885 613.884 185.953 613.884C184.228 613.884 182.848 613.24 181.813 612.067L180.272 613.907C181.514 615.379 183.331 616.276 185.976 616.276ZM199.629 616.276C202.757 616.276 205.494 614.804 205.494 612.067C205.494 610.112 203.907 608.709 202.044 608.088C203.769 607.536 205.264 606.409 205.264 604.454C205.264 601.625 202.32 600.429 199.629 600.429C196.892 600.429 193.994 601.625 193.994 604.454C193.994 606.409 195.466 607.536 197.191 608.088C195.328 608.709 193.741 610.112 193.741 612.067C193.741 614.827 196.478 616.276 199.629 616.276ZM199.629 607.03C198.686 606.869 196.708 606.317 196.708 604.868C196.708 603.58 197.95 602.821 199.629 602.821C201.262 602.821 202.527 603.58 202.527 604.868C202.527 606.317 200.572 606.869 199.629 607.03ZM199.629 613.884C197.881 613.884 196.455 613.056 196.455 611.722C196.455 610.135 198.663 609.422 199.629 609.307C200.572 609.422 202.78 610.135 202.78 611.722C202.78 613.056 201.331 613.884 199.629 613.884ZM212.549 616.253C216.988 616.253 219.311 612.757 219.311 608.341C219.311 604.063 217.494 600.406 212.986 600.406C209.559 600.406 207.328 602.729 207.328 605.558C207.328 608.824 209.72 610.526 212.48 610.526C214.274 610.526 215.884 609.399 216.597 608.364C216.597 608.525 216.597 608.663 216.597 608.824C216.597 611.331 215.332 613.861 212.549 613.861C211.1 613.861 210.203 613.355 209.398 612.527L208.156 614.551C209.191 615.586 210.663 616.253 212.549 616.253ZM213.193 608.203C211.537 608.203 210.065 607.352 210.065 605.466C210.065 604.247 211.123 602.798 213.124 602.798C215.493 602.798 216.413 604.753 216.551 606.409C215.792 607.513 214.504 608.203 213.193 608.203ZM227.352 616.276C231.653 616.276 233.493 612.205 233.493 608.341C233.493 604.477 231.653 600.429 227.352 600.429C223.051 600.429 221.211 604.477 221.211 608.341C221.211 612.205 223.051 616.276 227.352 616.276ZM227.352 613.884C224.845 613.884 223.948 611.262 223.948 608.341C223.948 605.42 224.845 602.821 227.352 602.821C229.859 602.821 230.756 605.42 230.756 608.341C230.756 611.262 229.859 613.884 227.352 613.884Z" fill="#282828"/>
<circle cx="180" cy="72" r="28" fill="#649AEC"/>
<path d="M168.837 74.8584H179.14V85.44H170.786C169.717 85.44 168.837 84.5601 168.837 83.4908V74.8584Z" fill="white"/>
<path d="M191.115 74.8584V83.4908C191.115 84.5601 190.235 85.44 189.165 85.44H180.812V74.8584H191.115Z" fill="white"/>
<path d="M166.609 68.4536V71.2383C166.609 72.3076 167.489 73.1875 168.559 73.1875H168.837H179.14V71.5167V66.5044H168.559C167.489 66.5044 166.609 67.3843 166.609 68.4536Z" fill="white"/>
<path d="M191.393 66.5044H180.812V71.5167V73.1875H191.115H191.393C192.462 73.1875 193.342 72.3076 193.342 71.2383V68.4536C193.342 67.3843 192.462 66.5044 191.393 66.5044Z" fill="white"/>
<path d="M179.975 67.6673C179.732 67.6673 179.5 67.5615 179.343 67.3777C179.184 67.1939 179.114 66.95 179.148 66.7094C179.56 63.9248 181.736 58.6573 187.024 58.6573C190.043 58.6585 191.113 60.2891 191.113 61.6859C191.113 64.1687 187.657 67.6673 179.975 67.6673ZM187.024 60.3292C183.034 60.3292 181.52 64.1219 181.017 65.972C184.165 65.825 186.15 65.0286 187.293 64.3503C188.878 63.409 189.442 62.3565 189.442 61.6848C189.442 60.6846 188.194 60.3292 187.024 60.3292Z" fill="white"/>
<path d="M179.977 67.6673C172.295 67.6673 168.839 64.1687 168.839 61.6859C168.839 60.2891 169.91 58.6584 172.929 58.6584C178.216 58.6584 180.392 63.9259 180.804 66.7105C180.838 66.9511 180.768 67.195 180.609 67.3788C180.452 67.5615 180.22 67.6673 179.977 67.6673ZM172.929 60.3292C171.759 60.3292 170.51 60.6857 170.51 61.6859C170.51 63.1083 172.997 65.7002 178.934 65.9731C178.432 64.1219 176.918 60.3292 172.929 60.3292Z" fill="white"/>

<path d="M69.2479 159L71.9079 149.662H70.6199L68.5619 157.446L66.4199 149.662H65.4539L63.3119 157.446L61.2399 149.662H59.9519L62.6119 159H63.8719L65.9299 151.468L67.9879 159H69.2479ZM75.6567 159.168C76.7627 159.168 77.6727 158.804 78.3447 158.132L77.8407 157.446C77.3087 157.992 76.5247 158.3 75.7547 158.3C74.2987 158.3 73.4027 157.236 73.3187 155.962H78.7927V155.696C78.7927 153.666 77.5887 152.07 75.5447 152.07C73.6127 152.07 72.2127 153.652 72.2127 155.612C72.2127 157.726 73.6547 159.168 75.6567 159.168ZM77.7567 155.192H73.3187C73.3747 154.156 74.0887 152.938 75.5307 152.938C77.0707 152.938 77.7427 154.184 77.7567 155.192ZM92.1387 159L88.3727 149.662H86.9307L83.1787 159H84.5087L85.3347 156.928H89.9827L90.8087 159H92.1387ZM89.6327 155.892H85.6707L87.6587 150.866L89.6327 155.892ZM96.6496 159.168C98.4276 159.168 99.6596 157.796 99.6596 155.612C99.6596 153.414 98.4276 152.07 96.6496 152.07C95.6976 152.07 94.8576 152.56 94.3676 153.246V152.238H93.3176V161.576H94.3676V157.978C94.9136 158.734 95.7256 159.168 96.6496 159.168ZM96.3836 158.23C95.5576 158.23 94.7316 157.726 94.3676 157.138V154.086C94.7316 153.498 95.5576 153.008 96.3836 153.008C97.7416 153.008 98.5536 154.114 98.5536 155.612C98.5536 157.11 97.7416 158.23 96.3836 158.23ZM104.661 159.168C106.439 159.168 107.671 157.796 107.671 155.612C107.671 153.414 106.439 152.07 104.661 152.07C103.709 152.07 102.869 152.56 102.379 153.246V152.238H101.329V161.576H102.379V157.978C102.925 158.734 103.737 159.168 104.661 159.168ZM104.395 158.23C103.569 158.23 102.743 157.726 102.379 157.138V154.086C102.743 153.498 103.569 153.008 104.395 153.008C105.753 153.008 106.565 154.114 106.565 155.612C106.565 157.11 105.753 158.23 104.395 158.23ZM110.391 159V154.212C110.699 153.666 111.581 153.134 112.225 153.134C112.393 153.134 112.519 153.148 112.645 153.176V152.098C111.721 152.098 110.937 152.616 110.391 153.33V152.238H109.341V159H110.391ZM117.014 159.168C118.12 159.168 119.03 158.804 119.702 158.132L119.198 157.446C118.666 157.992 117.882 158.3 117.112 158.3C115.656 158.3 114.76 157.236 114.676 155.962H120.15V155.696C120.15 153.666 118.946 152.07 116.902 152.07C114.97 152.07 113.57 153.652 113.57 155.612C113.57 157.726 115.012 159.168 117.014 159.168ZM119.114 155.192H114.676C114.732 154.156 115.446 152.938 116.888 152.938C118.428 152.938 119.1 154.184 119.114 155.192ZM124.833 159.168C126.065 159.168 126.793 158.664 127.311 157.992L126.611 157.348C126.163 157.95 125.589 158.23 124.889 158.23C123.447 158.23 122.551 157.11 122.551 155.612C122.551 154.114 123.447 153.008 124.889 153.008C125.589 153.008 126.163 153.274 126.611 153.89L127.311 153.246C126.793 152.574 126.065 152.07 124.833 152.07C122.817 152.07 121.459 153.61 121.459 155.612C121.459 157.628 122.817 159.168 124.833 159.168ZM129.3 151.272C129.692 151.272 130.014 150.964 130.014 150.572C130.014 150.18 129.692 149.858 129.3 149.858C128.922 149.858 128.6 150.18 128.6 150.572C128.6 150.964 128.922 151.272 129.3 151.272ZM129.832 159V152.238H128.782V159H129.832ZM137.205 159V154.352C137.205 152.714 136.015 152.07 134.587 152.07C133.481 152.07 132.613 152.434 131.885 153.19L132.375 153.918C132.977 153.274 133.635 152.98 134.447 152.98C135.427 152.98 136.155 153.498 136.155 154.408V155.626C135.609 154.996 134.839 154.702 133.915 154.702C132.767 154.702 131.549 155.416 131.549 156.928C131.549 158.398 132.767 159.168 133.915 159.168C134.825 159.168 135.595 158.846 136.155 158.23V159H137.205ZM134.293 158.412C133.313 158.412 132.627 157.796 132.627 156.942C132.627 156.074 133.313 155.458 134.293 155.458C135.035 155.458 135.749 155.738 136.155 156.298V157.572C135.749 158.132 135.035 158.412 134.293 158.412ZM141.018 159.168C141.634 159.168 142.012 158.986 142.278 158.734L141.97 157.95C141.83 158.104 141.55 158.23 141.256 158.23C140.794 158.23 140.57 157.866 140.57 157.362V153.162H141.942V152.238H140.57V150.39H139.52V152.238H138.4V153.162H139.52V157.586C139.52 158.594 140.024 159.168 141.018 159.168ZM146.477 159.168C147.583 159.168 148.493 158.804 149.165 158.132L148.661 157.446C148.129 157.992 147.345 158.3 146.575 158.3C145.119 158.3 144.223 157.236 144.139 155.962H149.613V155.696C149.613 153.666 148.409 152.07 146.365 152.07C144.433 152.07 143.033 153.652 143.033 155.612C143.033 157.726 144.475 159.168 146.477 159.168ZM148.577 155.192H144.139C144.195 154.156 144.909 152.938 146.351 152.938C147.891 152.938 148.563 154.184 148.577 155.192ZM158.843 159V155.052L162.511 149.662H161.153L158.255 154.002L155.357 149.662H153.999L157.681 155.052V159H158.843ZM164.863 159.168C166.921 159.168 168.209 157.572 168.209 155.612C168.209 153.652 166.921 152.07 164.863 152.07C162.805 152.07 161.517 153.652 161.517 155.612C161.517 157.572 162.805 159.168 164.863 159.168ZM164.863 158.23C163.421 158.23 162.609 156.998 162.609 155.612C162.609 154.24 163.421 153.008 164.863 153.008C166.305 153.008 167.103 154.24 167.103 155.612C167.103 156.998 166.305 158.23 164.863 158.23ZM175.535 159V152.238H174.485V157.208C174.093 157.754 173.309 158.23 172.483 158.23C171.573 158.23 170.971 157.88 170.971 156.69V152.238H169.921V157.012C169.921 158.482 170.663 159.168 172.077 159.168C173.085 159.168 173.967 158.636 174.485 158.048V159H175.535ZM187.401 159V157.964H182.445V154.744H187.303V153.708H182.445V150.698H187.401V149.662H181.283V159H187.401ZM190.556 159V153.162H191.928V152.238H190.556V151.72C190.556 150.866 190.934 150.39 191.62 150.39C191.97 150.39 192.236 150.53 192.46 150.726L192.894 150.04C192.474 149.648 191.998 149.522 191.466 149.522C190.262 149.522 189.506 150.334 189.506 151.72V152.238H188.386V153.162H189.506V159H190.556ZM194.518 159V153.162H195.89V152.238H194.518V151.72C194.518 150.866 194.896 150.39 195.582 150.39C195.932 150.39 196.198 150.53 196.422 150.726L196.856 150.04C196.436 149.648 195.96 149.522 195.428 149.522C194.224 149.522 193.468 150.334 193.468 151.72V152.238H192.348V153.162H193.468V159H194.518ZM200.207 159.168C201.313 159.168 202.223 158.804 202.895 158.132L202.391 157.446C201.859 157.992 201.075 158.3 200.305 158.3C198.849 158.3 197.953 157.236 197.869 155.962H203.343V155.696C203.343 153.666 202.139 152.07 200.095 152.07C198.163 152.07 196.763 153.652 196.763 155.612C196.763 157.726 198.205 159.168 200.207 159.168ZM202.307 155.192H197.869C197.925 154.156 198.639 152.938 200.081 152.938C201.621 152.938 202.293 154.184 202.307 155.192ZM208.026 159.168C209.258 159.168 209.986 158.664 210.504 157.992L209.804 157.348C209.356 157.95 208.782 158.23 208.082 158.23C206.64 158.23 205.744 157.11 205.744 155.612C205.744 154.114 206.64 153.008 208.082 153.008C208.782 153.008 209.356 153.274 209.804 153.89L210.504 153.246C209.986 152.574 209.258 152.07 208.026 152.07C206.01 152.07 204.652 153.61 204.652 155.612C204.652 157.628 206.01 159.168 208.026 159.168ZM213.684 159.168C214.3 159.168 214.678 158.986 214.944 158.734L214.636 157.95C214.496 158.104 214.216 158.23 213.922 158.23C213.46 158.23 213.236 157.866 213.236 157.362V153.162H214.608V152.238H213.236V150.39H212.186V152.238H211.066V153.162H212.186V157.586C212.186 158.594 212.69 159.168 213.684 159.168ZM223.214 159V150.698H226.182V149.662H219.098V150.698H222.052V159H223.214ZM229.025 159.168C231.083 159.168 232.371 157.572 232.371 155.612C232.371 153.652 231.083 152.07 229.025 152.07C226.967 152.07 225.679 153.652 225.679 155.612C225.679 157.572 226.967 159.168 229.025 159.168ZM229.025 158.23C227.583 158.23 226.771 156.998 226.771 155.612C226.771 154.24 227.583 153.008 229.025 153.008C230.467 153.008 231.265 154.24 231.265 155.612C231.265 156.998 230.467 158.23 229.025 158.23ZM245.519 159V149.662H244.357V153.68H238.897V149.662H237.735V159H238.897V154.716H244.357V159H245.519ZM250.711 159.168C251.817 159.168 252.727 158.804 253.399 158.132L252.895 157.446C252.363 157.992 251.579 158.3 250.809 158.3C249.353 158.3 248.457 157.236 248.373 155.962H253.847V155.696C253.847 153.666 252.643 152.07 250.599 152.07C248.667 152.07 247.267 153.652 247.267 155.612C247.267 157.726 248.709 159.168 250.711 159.168ZM252.811 155.192H248.373C248.429 154.156 249.143 152.938 250.585 152.938C252.125 152.938 252.797 154.184 252.811 155.192ZM256.598 159V149.662H255.548V159H256.598ZM262.025 159.168C263.803 159.168 265.035 157.796 265.035 155.612C265.035 153.414 263.803 152.07 262.025 152.07C261.073 152.07 260.233 152.56 259.743 153.246V152.238H258.693V161.576H259.743V157.978C260.289 158.734 261.101 159.168 262.025 159.168ZM261.759 158.23C260.933 158.23 260.107 157.726 259.743 157.138V154.086C260.107 153.498 260.933 153.008 261.759 153.008C263.117 153.008 263.929 154.114 263.929 155.612C263.929 157.11 263.117 158.23 261.759 158.23ZM274.164 159.168C276.698 159.168 277.972 157.684 277.972 155.36V149.662H276.81V155.346C276.81 157.054 275.886 158.132 274.164 158.132C272.442 158.132 271.518 157.054 271.518 155.346V149.662H270.356V155.374C270.356 157.67 271.63 159.168 274.164 159.168ZM282.258 159.168C284.008 159.168 284.918 158.258 284.918 157.124C284.918 154.492 280.732 155.472 280.732 153.988C280.732 153.386 281.306 152.924 282.23 152.924C283.098 152.924 283.84 153.288 284.246 153.778L284.736 153.05C284.19 152.504 283.378 152.07 282.23 152.07C280.62 152.07 279.71 152.966 279.71 154.016C279.71 156.522 283.896 155.514 283.896 157.152C283.896 157.824 283.336 158.314 282.3 158.314C281.376 158.314 280.522 157.866 280.074 157.348L279.528 158.104C280.214 158.832 281.152 159.168 282.258 159.168ZM291.438 159V149.662H290.276V159H291.438ZM299.197 159V154.254C299.197 152.784 298.455 152.07 297.041 152.07C296.033 152.07 295.109 152.658 294.633 153.218V152.238H293.583V159H294.633V154.058C295.025 153.512 295.809 153.008 296.635 153.008C297.545 153.008 298.147 153.386 298.147 154.576V159H299.197ZM54.1937 179.168C56.9517 179.168 58.8277 177.096 58.8277 174.338C58.8277 171.58 56.9517 169.508 54.1937 169.508C51.4217 169.508 49.5597 171.58 49.5597 174.338C49.5597 177.096 51.4217 179.168 54.1937 179.168ZM54.1937 178.132C52.0937 178.132 50.7637 176.508 50.7637 174.338C50.7637 172.154 52.0937 170.544 54.1937 170.544C56.2797 170.544 57.6237 172.154 57.6237 174.338C57.6237 176.508 56.2797 178.132 54.1937 178.132ZM66.2148 179V172.238H65.1648V177.208C64.7728 177.754 63.9888 178.23 63.1628 178.23C62.2528 178.23 61.6508 177.88 61.6508 176.69V172.238H60.6008V177.012C60.6008 178.482 61.3428 179.168 62.7568 179.168C63.7648 179.168 64.6468 178.636 65.1648 178.048V179H66.2148ZM69.3617 179V174.212C69.6697 173.666 70.5517 173.134 71.1957 173.134C71.3637 173.134 71.4897 173.148 71.6157 173.176V172.098C70.6917 172.098 69.9077 172.616 69.3617 173.33V172.238H68.3117V179H69.3617ZM77.7462 179V169.662H76.5842V179H77.7462ZM85.5058 179V174.254C85.5058 172.784 84.7638 172.07 83.3498 172.07C82.3418 172.07 81.4178 172.658 80.9418 173.218V172.238H79.8918V179H80.9418V174.058C81.3338 173.512 82.1178 173.008 82.9438 173.008C83.8538 173.008 84.4558 173.386 84.4558 174.576V179H85.5058ZM88.1207 171.272C88.5127 171.272 88.8347 170.964 88.8347 170.572C88.8347 170.18 88.5127 169.858 88.1207 169.858C87.7427 169.858 87.4207 170.18 87.4207 170.572C87.4207 170.964 87.7427 171.272 88.1207 171.272ZM88.6527 179V172.238H87.6027V179H88.6527ZM92.4553 179.168C93.0713 179.168 93.4493 178.986 93.7153 178.734L93.4073 177.95C93.2673 178.104 92.9873 178.23 92.6933 178.23C92.2313 178.23 92.0073 177.866 92.0073 177.362V173.162H93.3793V172.238H92.0073V170.39H90.9573V172.238H89.8373V173.162H90.9573V177.586C90.9573 178.594 91.4613 179.168 92.4553 179.168ZM95.3805 171.272C95.7725 171.272 96.0945 170.964 96.0945 170.572C96.0945 170.18 95.7725 169.858 95.3805 169.858C95.0025 169.858 94.6805 170.18 94.6805 170.572C94.6805 170.964 95.0025 171.272 95.3805 171.272ZM95.9125 179V172.238H94.8625V179H95.9125ZM103.285 179V174.352C103.285 172.714 102.095 172.07 100.667 172.07C99.561 172.07 98.693 172.434 97.965 173.19L98.455 173.918C99.057 173.274 99.715 172.98 100.527 172.98C101.507 172.98 102.235 173.498 102.235 174.408V175.626C101.689 174.996 100.919 174.702 99.995 174.702C98.847 174.702 97.629 175.416 97.629 176.928C97.629 178.398 98.847 179.168 99.995 179.168C100.905 179.168 101.675 178.846 102.235 178.23V179H103.285ZM100.373 178.412C99.393 178.412 98.707 177.796 98.707 176.942C98.707 176.074 99.393 175.458 100.373 175.458C101.115 175.458 101.829 175.738 102.235 176.298V177.572C101.829 178.132 101.115 178.412 100.373 178.412ZM107.098 179.168C107.714 179.168 108.092 178.986 108.358 178.734L108.05 177.95C107.91 178.104 107.63 178.23 107.336 178.23C106.874 178.23 106.65 177.866 106.65 177.362V173.162H108.022V172.238H106.65V170.39H105.6V172.238H104.48V173.162H105.6V177.586C105.6 178.594 106.104 179.168 107.098 179.168ZM110.023 171.272C110.415 171.272 110.737 170.964 110.737 170.572C110.737 170.18 110.415 169.858 110.023 169.858C109.645 169.858 109.323 170.18 109.323 170.572C109.323 170.964 109.645 171.272 110.023 171.272ZM110.555 179V172.238H109.505V179H110.555ZM115.604 179L118.418 172.238H117.27L115.03 177.782L112.776 172.238H111.642L114.456 179H115.604ZM122.565 179.168C123.671 179.168 124.581 178.804 125.253 178.132L124.749 177.446C124.217 177.992 123.433 178.3 122.663 178.3C121.207 178.3 120.311 177.236 120.227 175.962H125.701V175.696C125.701 173.666 124.497 172.07 122.453 172.07C120.521 172.07 119.121 173.652 119.121 175.612C119.121 177.726 120.563 179.168 122.565 179.168ZM124.665 175.192H120.227C120.283 174.156 120.997 172.938 122.439 172.938C123.979 172.938 124.651 174.184 124.665 175.192ZM134.525 179V170.698H137.493V169.662H130.409V170.698H133.363V179H134.525ZM140.336 179.168C142.394 179.168 143.682 177.572 143.682 175.612C143.682 173.652 142.394 172.07 140.336 172.07C138.278 172.07 136.99 173.652 136.99 175.612C136.99 177.572 138.278 179.168 140.336 179.168ZM140.336 178.23C138.894 178.23 138.082 176.998 138.082 175.612C138.082 174.24 138.894 173.008 140.336 173.008C141.778 173.008 142.576 174.24 142.576 175.612C142.576 176.998 141.778 178.23 140.336 178.23ZM148.46 179.168C150.98 179.168 151.904 177.782 151.904 176.424C151.904 172.938 146.374 174.142 146.374 172.042C146.374 171.16 147.172 170.558 148.292 170.558C149.314 170.558 150.294 170.908 150.994 171.678L151.694 170.824C150.91 169.998 149.804 169.522 148.376 169.522C146.542 169.522 145.17 170.572 145.17 172.112C145.17 175.444 150.7 174.114 150.7 176.522C150.7 177.236 150.168 178.132 148.502 178.132C147.186 178.132 146.178 177.488 145.562 176.802L144.876 177.684C145.646 178.552 146.836 179.168 148.46 179.168ZM158.875 179V174.352C158.875 172.714 157.685 172.07 156.257 172.07C155.151 172.07 154.283 172.434 153.555 173.19L154.045 173.918C154.647 173.274 155.305 172.98 156.117 172.98C157.097 172.98 157.825 173.498 157.825 174.408V175.626C157.279 174.996 156.509 174.702 155.585 174.702C154.437 174.702 153.219 175.416 153.219 176.928C153.219 178.398 154.437 179.168 155.585 179.168C156.495 179.168 157.265 178.846 157.825 178.23V179H158.875ZM155.963 178.412C154.983 178.412 154.297 177.796 154.297 176.942C154.297 176.074 154.983 175.458 155.963 175.458C156.705 175.458 157.419 175.738 157.825 176.298V177.572C157.419 178.132 156.705 178.412 155.963 178.412ZM163.934 179L166.748 172.238H165.6L163.36 177.782L161.106 172.238H159.972L162.786 179H163.934ZM170.895 179.168C172.001 179.168 172.911 178.804 173.583 178.132L173.079 177.446C172.547 177.992 171.763 178.3 170.993 178.3C169.537 178.3 168.641 177.236 168.557 175.962H174.031V175.696C174.031 173.666 172.827 172.07 170.783 172.07C168.851 172.07 167.451 173.652 167.451 175.612C167.451 177.726 168.893 179.168 170.895 179.168ZM172.995 175.192H168.557C168.613 174.156 169.327 172.938 170.769 172.938C172.309 172.938 172.981 174.184 172.995 175.192ZM183.639 179.168C186.397 179.168 188.273 177.096 188.273 174.338C188.273 171.58 186.397 169.508 183.639 169.508C180.867 169.508 179.005 171.58 179.005 174.338C179.005 177.096 180.867 179.168 183.639 179.168ZM183.639 178.132C181.539 178.132 180.209 176.508 180.209 174.338C180.209 172.154 181.539 170.544 183.639 170.544C185.725 170.544 187.069 172.154 187.069 174.338C187.069 176.508 185.725 178.132 183.639 178.132ZM195.66 179V172.238H194.61V177.208C194.218 177.754 193.434 178.23 192.608 178.23C191.698 178.23 191.096 177.88 191.096 176.69V172.238H190.046V177.012C190.046 178.482 190.788 179.168 192.202 179.168C193.21 179.168 194.092 178.636 194.61 178.048V179H195.66ZM198.807 179V174.212C199.115 173.666 199.997 173.134 200.641 173.134C200.809 173.134 200.935 173.148 201.061 173.176V172.098C200.137 172.098 199.353 172.616 198.807 173.33V172.238H197.757V179H198.807ZM207.192 179V175.29H209.782C211.63 175.29 212.708 174.002 212.708 172.476C212.708 170.95 211.658 169.662 209.782 169.662H206.03V179H207.192ZM209.642 174.254H207.192V170.698H209.642C210.748 170.698 211.504 171.426 211.504 172.476C211.504 173.526 210.748 174.254 209.642 174.254ZM215.254 179V169.662H214.204V179H215.254ZM222.627 179V174.352C222.627 172.714 221.437 172.07 220.009 172.07C218.903 172.07 218.035 172.434 217.307 173.19L217.797 173.918C218.399 173.274 219.057 172.98 219.869 172.98C220.849 172.98 221.577 173.498 221.577 174.408V175.626C221.031 174.996 220.261 174.702 219.337 174.702C218.189 174.702 216.971 175.416 216.971 176.928C216.971 178.398 218.189 179.168 219.337 179.168C220.247 179.168 221.017 178.846 221.577 178.23V179H222.627ZM219.715 178.412C218.735 178.412 218.049 177.796 218.049 176.942C218.049 176.074 218.735 175.458 219.715 175.458C220.457 175.458 221.171 175.738 221.577 176.298V177.572C221.171 178.132 220.457 178.412 219.715 178.412ZM230.346 179V174.254C230.346 172.784 229.604 172.07 228.19 172.07C227.182 172.07 226.258 172.658 225.782 173.218V172.238H224.732V179H225.782V174.058C226.174 173.512 226.958 173.008 227.784 173.008C228.694 173.008 229.296 173.386 229.296 174.576V179H230.346ZM234.151 179.168C234.767 179.168 235.145 178.986 235.411 178.734L235.103 177.95C234.963 178.104 234.683 178.23 234.389 178.23C233.927 178.23 233.703 177.866 233.703 177.362V173.162H235.075V172.238H233.703V170.39H232.653V172.238H231.533V173.162H232.653V177.586C232.653 178.594 233.157 179.168 234.151 179.168ZM244.465 179C246.173 179 247.167 177.978 247.167 176.48C247.167 175.36 246.341 174.338 245.347 174.184C246.201 174.002 246.985 173.218 246.985 172.042C246.985 170.642 245.991 169.662 244.367 169.662H240.209V179H244.465ZM244.171 173.708H241.371V170.698H244.171C245.221 170.698 245.781 171.37 245.781 172.21C245.781 173.064 245.221 173.708 244.171 173.708ZM244.227 177.964H241.371V174.744H244.227C245.375 174.744 245.963 175.5 245.963 176.354C245.963 177.348 245.319 177.964 244.227 177.964ZM248.594 181.646C248.79 181.702 249.14 181.744 249.364 181.744C250.26 181.73 250.946 181.352 251.352 180.372L254.74 172.238H253.592L251.352 177.782L249.098 172.238H247.964L250.792 179.07L250.344 180.092C250.106 180.652 249.798 180.806 249.336 180.806C249.168 180.806 248.916 180.764 248.762 180.694L248.594 181.646ZM260.649 179V174.744H265.507V173.708H260.649V170.698H265.605V169.662H259.487V179H260.649ZM268.192 179V169.662H267.142V179H268.192ZM270.804 171.272C271.196 171.272 271.518 170.964 271.518 170.572C271.518 170.18 271.196 169.858 270.804 169.858C270.426 169.858 270.104 170.18 270.104 170.572C270.104 170.964 270.426 171.272 270.804 171.272ZM271.336 179V172.238H270.286V179H271.336ZM276.147 181.744C277.799 181.744 279.367 181.044 279.367 178.804V172.238H278.317V173.26C277.771 172.518 276.959 172.07 276.049 172.07C274.271 172.07 273.039 173.414 273.039 175.584C273.039 177.768 274.285 179.084 276.049 179.084C277.001 179.084 277.827 178.566 278.317 177.88V178.846C278.317 180.33 277.267 180.876 276.147 180.876C275.181 180.876 274.509 180.624 273.949 179.952L273.417 180.736C274.215 181.52 274.999 181.744 276.147 181.744ZM276.301 178.16C274.943 178.16 274.131 177.068 274.131 175.584C274.131 174.086 274.943 173.008 276.301 173.008C277.141 173.008 277.953 173.512 278.317 174.1V177.054C277.953 177.642 277.141 178.16 276.301 178.16ZM287.098 179V174.226C287.098 172.756 286.356 172.07 284.942 172.07C283.92 172.07 282.996 172.658 282.52 173.218V169.662H281.47V179H282.52V174.058C282.926 173.512 283.71 173.008 284.522 173.008C285.432 173.008 286.048 173.358 286.048 174.548V179H287.098ZM290.903 179.168C291.519 179.168 291.897 178.986 292.163 178.734L291.855 177.95C291.715 178.104 291.435 178.23 291.141 178.23C290.679 178.23 290.455 177.866 290.455 177.362V173.162H291.827V172.238H290.455V170.39H289.405V172.238H288.285V173.162H289.405V177.586C289.405 178.594 289.909 179.168 290.903 179.168ZM293.828 171.272C294.22 171.272 294.542 170.964 294.542 170.572C294.542 170.18 294.22 169.858 293.828 169.858C293.45 169.858 293.128 170.18 293.128 170.572C293.128 170.964 293.45 171.272 293.828 171.272ZM294.36 179V172.238H293.31V179H294.36ZM302.068 179V174.254C302.068 172.784 301.326 172.07 299.912 172.07C298.904 172.07 297.98 172.658 297.504 173.218V172.238H296.454V179H297.504V174.058C297.896 173.512 298.68 173.008 299.506 173.008C300.416 173.008 301.018 173.386 301.018 174.576V179H302.068ZM306.881 181.744C308.533 181.744 310.101 181.044 310.101 178.804V172.238H309.051V173.26C308.505 172.518 307.693 172.07 306.783 172.07C305.005 172.07 303.773 173.414 303.773 175.584C303.773 177.768 305.019 179.084 306.783 179.084C307.735 179.084 308.561 178.566 309.051 177.88V178.846C309.051 180.33 308.001 180.876 306.881 180.876C305.915 180.876 305.243 180.624 304.683 179.952L304.151 180.736C304.949 181.52 305.733 181.744 306.881 181.744ZM307.035 178.16C305.677 178.16 304.865 177.068 304.865 175.584C304.865 174.086 305.677 173.008 307.035 173.008C307.875 173.008 308.687 173.512 309.051 174.1V177.054C308.687 177.642 307.875 178.16 307.035 178.16ZM53.8438 199L50.0778 189.662H48.6358L44.8838 199H46.2138L47.0398 196.928H51.6878L52.5138 199H53.8438ZM51.3378 195.892H47.3758L49.3638 190.866L51.3378 195.892ZM57.7387 201.744C59.3907 201.744 60.9587 201.044 60.9587 198.804V192.238H59.9087V193.26C59.3627 192.518 58.5507 192.07 57.6407 192.07C55.8627 192.07 54.6307 193.414 54.6307 195.584C54.6307 197.768 55.8767 199.084 57.6407 199.084C58.5927 199.084 59.4187 198.566 59.9087 197.88V198.846C59.9087 200.33 58.8587 200.876 57.7387 200.876C56.7727 200.876 56.1007 200.624 55.5407 199.952L55.0087 200.736C55.8067 201.52 56.5907 201.744 57.7387 201.744ZM57.8927 198.16C56.5347 198.16 55.7227 197.068 55.7227 195.584C55.7227 194.086 56.5347 193.008 57.8927 193.008C58.7327 193.008 59.5447 193.512 59.9087 194.1V197.054C59.5447 197.642 58.7327 198.16 57.8927 198.16ZM68.3397 199V194.352C68.3397 192.714 67.1497 192.07 65.7217 192.07C64.6157 192.07 63.7477 192.434 63.0197 193.19L63.5097 193.918C64.1117 193.274 64.7697 192.98 65.5817 192.98C66.5617 192.98 67.2897 193.498 67.2897 194.408V195.626C66.7437 194.996 65.9737 194.702 65.0497 194.702C63.9017 194.702 62.6837 195.416 62.6837 196.928C62.6837 198.398 63.9017 199.168 65.0497 199.168C65.9597 199.168 66.7297 198.846 67.2897 198.23V199H68.3397ZM65.4277 198.412C64.4477 198.412 63.7617 197.796 63.7617 196.942C63.7617 196.074 64.4477 195.458 65.4277 195.458C66.1697 195.458 66.8837 195.738 67.2897 196.298V197.572C66.8837 198.132 66.1697 198.412 65.4277 198.412ZM70.9625 191.272C71.3545 191.272 71.6765 190.964 71.6765 190.572C71.6765 190.18 71.3545 189.858 70.9625 189.858C70.5845 189.858 70.2625 190.18 70.2625 190.572C70.2625 190.964 70.5845 191.272 70.9625 191.272ZM71.4945 199V192.238H70.4445V199H71.4945ZM79.2031 199V194.254C79.2031 192.784 78.4611 192.07 77.0471 192.07C76.0391 192.07 75.1151 192.658 74.6391 193.218V192.238H73.5891V199H74.6391V194.058C75.0311 193.512 75.8151 193.008 76.6411 193.008C77.5511 193.008 78.1531 193.386 78.1531 194.576V199H79.2031ZM83.442 199.168C85.192 199.168 86.102 198.258 86.102 197.124C86.102 194.492 81.916 195.472 81.916 193.988C81.916 193.386 82.49 192.924 83.414 192.924C84.282 192.924 85.024 193.288 85.43 193.778L85.92 193.05C85.374 192.504 84.562 192.07 83.414 192.07C81.804 192.07 80.894 192.966 80.894 194.016C80.894 196.522 85.08 195.514 85.08 197.152C85.08 197.824 84.52 198.314 83.484 198.314C82.56 198.314 81.706 197.866 81.258 197.348L80.712 198.104C81.398 198.832 82.336 199.168 83.442 199.168ZM89.5158 199.168C90.1318 199.168 90.5098 198.986 90.7758 198.734L90.4678 197.95C90.3278 198.104 90.0478 198.23 89.7538 198.23C89.2918 198.23 89.0678 197.866 89.0678 197.362V193.162H90.4398V192.238H89.0678V190.39H88.0178V192.238H86.8978V193.162H88.0178V197.586C88.0178 198.594 88.5218 199.168 89.5158 199.168ZM103.568 199L99.8024 189.662H98.3604L94.6084 199H95.9384L96.7644 196.928H101.412L102.238 199H103.568ZM101.062 195.892H97.1004L99.0884 190.866L101.062 195.892ZM105.265 191.272C105.657 191.272 105.979 190.964 105.979 190.572C105.979 190.18 105.657 189.858 105.265 189.858C104.887 189.858 104.565 190.18 104.565 190.572C104.565 190.964 104.887 191.272 105.265 191.272ZM105.797 199V192.238H104.747V199H105.797ZM108.942 199V194.212C109.25 193.666 110.132 193.134 110.776 193.134C110.944 193.134 111.07 193.148 111.196 193.176V192.098C110.272 192.098 109.488 192.616 108.942 193.33V192.238H107.892V199H108.942ZM117.326 199V195.29H119.916C121.764 195.29 122.842 194.002 122.842 192.476C122.842 190.95 121.792 189.662 119.916 189.662H116.164V199H117.326ZM119.776 194.254H117.326V190.698H119.776C120.882 190.698 121.638 191.426 121.638 192.476C121.638 193.526 120.882 194.254 119.776 194.254ZM127.115 199.168C129.173 199.168 130.461 197.572 130.461 195.612C130.461 193.652 129.173 192.07 127.115 192.07C125.057 192.07 123.769 193.652 123.769 195.612C123.769 197.572 125.057 199.168 127.115 199.168ZM127.115 198.23C125.673 198.23 124.861 196.998 124.861 195.612C124.861 194.24 125.673 193.008 127.115 193.008C128.557 193.008 129.355 194.24 129.355 195.612C129.355 196.998 128.557 198.23 127.115 198.23ZM133.223 199V189.662H132.173V199H133.223ZM136.368 199V189.662H135.318V199H136.368ZM144.076 199V192.238H143.026V197.208C142.634 197.754 141.85 198.23 141.024 198.23C140.114 198.23 139.512 197.88 139.512 196.69V192.238H138.462V197.012C138.462 198.482 139.204 199.168 140.618 199.168C141.626 199.168 142.508 198.636 143.026 198.048V199H144.076ZM147.881 199.168C148.497 199.168 148.875 198.986 149.141 198.734L148.833 197.95C148.693 198.104 148.413 198.23 148.119 198.23C147.657 198.23 147.433 197.866 147.433 197.362V193.162H148.805V192.238H147.433V190.39H146.383V192.238H145.263V193.162H146.383V197.586C146.383 198.594 146.887 199.168 147.881 199.168ZM150.806 191.272C151.198 191.272 151.52 190.964 151.52 190.572C151.52 190.18 151.198 189.858 150.806 189.858C150.428 189.858 150.106 190.18 150.106 190.572C150.106 190.964 150.428 191.272 150.806 191.272ZM151.338 199V192.238H150.288V199H151.338ZM156.387 199.168C158.445 199.168 159.733 197.572 159.733 195.612C159.733 193.652 158.445 192.07 156.387 192.07C154.329 192.07 153.041 193.652 153.041 195.612C153.041 197.572 154.329 199.168 156.387 199.168ZM156.387 198.23C154.945 198.23 154.133 196.998 154.133 195.612C154.133 194.24 154.945 193.008 156.387 193.008C157.829 193.008 158.627 194.24 158.627 195.612C158.627 196.998 157.829 198.23 156.387 198.23ZM167.059 199V194.254C167.059 192.784 166.317 192.07 164.903 192.07C163.895 192.07 162.971 192.658 162.495 193.218V192.238H161.445V199H162.495V194.058C162.887 193.512 163.671 193.008 164.497 193.008C165.407 193.008 166.009 193.386 166.009 194.576V199H167.059ZM169.715 199.14C170.135 199.14 170.485 198.79 170.485 198.37C170.485 197.95 170.135 197.6 169.715 197.6C169.295 197.6 168.945 197.95 168.945 198.37C168.945 198.79 169.295 199.14 169.715 199.14ZM184.433 199L187.093 189.662H185.805L183.747 197.446L181.605 189.662H180.639L178.497 197.446L176.425 189.662H175.137L177.797 199H179.057L181.115 191.468L183.173 199H184.433ZM190.842 199.168C191.948 199.168 192.858 198.804 193.53 198.132L193.026 197.446C192.494 197.992 191.71 198.3 190.94 198.3C189.484 198.3 188.588 197.236 188.504 195.962H193.978V195.696C193.978 193.666 192.774 192.07 190.73 192.07C188.798 192.07 187.398 193.652 187.398 195.612C187.398 197.726 188.84 199.168 190.842 199.168ZM192.942 195.192H188.504C188.56 194.156 189.274 192.938 190.716 192.938C192.256 192.938 192.928 194.184 192.942 195.192ZM200.492 199V195.29H203.082C204.93 195.29 206.008 194.002 206.008 192.476C206.008 190.95 204.958 189.662 203.082 189.662H199.33V199H200.492ZM202.942 194.254H200.492V190.698H202.942C204.048 190.698 204.804 191.426 204.804 192.476C204.804 193.526 204.048 194.254 202.942 194.254ZM208.555 199V189.662H207.505V199H208.555ZM213.702 199.168C214.808 199.168 215.718 198.804 216.39 198.132L215.886 197.446C215.354 197.992 214.57 198.3 213.8 198.3C212.344 198.3 211.448 197.236 211.364 195.962H216.838V195.696C216.838 193.666 215.634 192.07 213.59 192.07C211.658 192.07 210.258 193.652 210.258 195.612C210.258 197.726 211.7 199.168 213.702 199.168ZM215.802 195.192H211.364C211.42 194.156 212.134 192.938 213.576 192.938C215.116 192.938 215.788 194.184 215.802 195.192ZM223.816 199V194.352C223.816 192.714 222.626 192.07 221.198 192.07C220.092 192.07 219.224 192.434 218.496 193.19L218.986 193.918C219.588 193.274 220.246 192.98 221.058 192.98C222.038 192.98 222.766 193.498 222.766 194.408V195.626C222.22 194.996 221.45 194.702 220.526 194.702C219.378 194.702 218.16 195.416 218.16 196.928C218.16 198.398 219.378 199.168 220.526 199.168C221.436 199.168 222.206 198.846 222.766 198.23V199H223.816ZM220.904 198.412C219.924 198.412 219.238 197.796 219.238 196.942C219.238 196.074 219.924 195.458 220.904 195.458C221.646 195.458 222.36 195.738 222.766 196.298V197.572C222.36 198.132 221.646 198.412 220.904 198.412ZM228.063 199.168C229.813 199.168 230.723 198.258 230.723 197.124C230.723 194.492 226.537 195.472 226.537 193.988C226.537 193.386 227.111 192.924 228.035 192.924C228.903 192.924 229.645 193.288 230.051 193.778L230.541 193.05C229.995 192.504 229.183 192.07 228.035 192.07C226.425 192.07 225.515 192.966 225.515 194.016C225.515 196.522 229.701 195.514 229.701 197.152C229.701 197.824 229.141 198.314 228.105 198.314C227.181 198.314 226.327 197.866 225.879 197.348L225.333 198.104C226.019 198.832 226.957 199.168 228.063 199.168ZM235.481 199.168C236.587 199.168 237.497 198.804 238.169 198.132L237.665 197.446C237.133 197.992 236.349 198.3 235.579 198.3C234.123 198.3 233.227 197.236 233.143 195.962H238.617V195.696C238.617 193.666 237.413 192.07 235.369 192.07C233.437 192.07 232.037 193.652 232.037 195.612C232.037 197.726 233.479 199.168 235.481 199.168ZM237.581 195.192H233.143C233.199 194.156 233.913 192.938 235.355 192.938C236.895 192.938 237.567 194.184 237.581 195.192ZM246.268 199V189.662H245.218V193.26C244.672 192.518 243.846 192.07 242.936 192.07C241.158 192.07 239.926 193.47 239.926 195.626C239.926 197.824 241.172 199.168 242.936 199.168C243.888 199.168 244.714 198.678 245.218 197.992V199H246.268ZM243.188 198.23C241.83 198.23 241.018 197.124 241.018 195.626C241.018 194.128 241.83 193.008 243.188 193.008C244.028 193.008 244.84 193.512 245.218 194.1V197.166C244.84 197.754 244.028 198.23 243.188 198.23ZM255.494 199V190.698H258.462V189.662H251.378V190.698H254.332V199H255.494ZM261.305 199.168C263.363 199.168 264.651 197.572 264.651 195.612C264.651 193.652 263.363 192.07 261.305 192.07C259.247 192.07 257.959 193.652 257.959 195.612C257.959 197.572 259.247 199.168 261.305 199.168ZM261.305 198.23C259.863 198.23 259.051 196.998 259.051 195.612C259.051 194.24 259.863 193.008 261.305 193.008C262.747 193.008 263.545 194.24 263.545 195.612C263.545 196.998 262.747 198.23 261.305 198.23ZM276.79 199L274.27 195.192C275.544 195.08 276.692 194.156 276.692 192.476C276.692 190.754 275.474 189.662 273.766 189.662H270.014V199H271.176V195.29H273.038L275.418 199H276.79ZM273.626 194.268H271.176V190.698H273.626C274.732 190.698 275.488 191.426 275.488 192.476C275.488 193.526 274.732 194.268 273.626 194.268ZM281.118 199.168C282.224 199.168 283.134 198.804 283.806 198.132L283.302 197.446C282.77 197.992 281.986 198.3 281.216 198.3C279.76 198.3 278.864 197.236 278.78 195.962H284.254V195.696C284.254 193.666 283.05 192.07 281.006 192.07C279.074 192.07 277.674 193.652 277.674 195.612C277.674 197.726 279.116 199.168 281.118 199.168ZM283.218 195.192H278.78C278.836 194.156 279.55 192.938 280.992 192.938C282.532 192.938 283.204 194.184 283.218 195.192ZM292.856 199L295.012 192.238H293.92L292.268 197.628L290.49 192.238H289.594L287.816 197.628L286.164 192.238H285.072L287.228 199H288.278L290.042 193.568L291.806 199H292.856ZM301.514 199V194.352C301.514 192.714 300.324 192.07 298.896 192.07C297.79 192.07 296.922 192.434 296.194 193.19L296.684 193.918C297.286 193.274 297.944 192.98 298.756 192.98C299.736 192.98 300.464 193.498 300.464 194.408V195.626C299.918 194.996 299.148 194.702 298.224 194.702C297.076 194.702 295.858 195.416 295.858 196.928C295.858 198.398 297.076 199.168 298.224 199.168C299.134 199.168 299.904 198.846 300.464 198.23V199H301.514ZM298.602 198.412C297.622 198.412 296.936 197.796 296.936 196.942C296.936 196.074 297.622 195.458 298.602 195.458C299.344 195.458 300.058 195.738 300.464 196.298V197.572C300.058 198.132 299.344 198.412 298.602 198.412ZM304.668 199V194.212C304.976 193.666 305.858 193.134 306.502 193.134C306.67 193.134 306.796 193.148 306.922 193.176V192.098C305.998 192.098 305.214 192.616 304.668 193.33V192.238H303.618V199H304.668ZM314.189 199V189.662H313.139V193.26C312.593 192.518 311.767 192.07 310.857 192.07C309.079 192.07 307.847 193.47 307.847 195.626C307.847 197.824 309.093 199.168 310.857 199.168C311.809 199.168 312.635 198.678 313.139 197.992V199H314.189ZM311.109 198.23C309.751 198.23 308.939 197.124 308.939 195.626C308.939 194.128 309.751 193.008 311.109 193.008C311.949 193.008 312.761 193.512 313.139 194.1V197.166C312.761 197.754 311.949 198.23 311.109 198.23ZM101.913 219V215.052L105.581 209.662H104.223L101.325 214.002L98.4274 209.662H97.0694L100.751 215.052V219H101.913ZM107.934 219.168C109.992 219.168 111.28 217.572 111.28 215.612C111.28 213.652 109.992 212.07 107.934 212.07C105.876 212.07 104.588 213.652 104.588 215.612C104.588 217.572 105.876 219.168 107.934 219.168ZM107.934 218.23C106.492 218.23 105.68 216.998 105.68 215.612C105.68 214.24 106.492 213.008 107.934 213.008C109.376 213.008 110.174 214.24 110.174 215.612C110.174 216.998 109.376 218.23 107.934 218.23ZM118.605 219V212.238H117.555V217.208C117.163 217.754 116.379 218.23 115.553 218.23C114.643 218.23 114.041 217.88 114.041 216.69V212.238H112.991V217.012C112.991 218.482 113.733 219.168 115.147 219.168C116.155 219.168 117.037 218.636 117.555 218.048V219H118.605ZM125.516 219V214.744H130.374V213.708H125.516V210.698H130.472V209.662H124.354V219H125.516ZM134.963 219.168C137.021 219.168 138.309 217.572 138.309 215.612C138.309 213.652 137.021 212.07 134.963 212.07C132.905 212.07 131.617 213.652 131.617 215.612C131.617 217.572 132.905 219.168 134.963 219.168ZM134.963 218.23C133.521 218.23 132.709 216.998 132.709 215.612C132.709 214.24 133.521 213.008 134.963 213.008C136.405 213.008 137.203 214.24 137.203 215.612C137.203 216.998 136.405 218.23 134.963 218.23ZM141.071 219V214.212C141.379 213.666 142.261 213.134 142.905 213.134C143.073 213.134 143.199 213.148 143.325 213.176V212.098C142.401 212.098 141.617 212.616 141.071 213.33V212.238H140.021V219H141.071ZM152.171 219V215.052L155.839 209.662H154.481L151.583 214.002L148.685 209.662H147.327L151.009 215.052V219H152.171ZM158.192 219.168C160.25 219.168 161.538 217.572 161.538 215.612C161.538 213.652 160.25 212.07 158.192 212.07C156.134 212.07 154.846 213.652 154.846 215.612C154.846 217.572 156.134 219.168 158.192 219.168ZM158.192 218.23C156.75 218.23 155.938 216.998 155.938 215.612C155.938 214.24 156.75 213.008 158.192 213.008C159.634 213.008 160.432 214.24 160.432 215.612C160.432 216.998 159.634 218.23 158.192 218.23ZM168.863 219V212.238H167.813V217.208C167.421 217.754 166.637 218.23 165.811 218.23C164.901 218.23 164.299 217.88 164.299 216.69V212.238H163.249V217.012C163.249 218.482 163.991 219.168 165.405 219.168C166.413 219.168 167.295 218.636 167.813 218.048V219H168.863ZM172.01 219V214.212C172.318 213.666 173.2 213.134 173.844 213.134C174.012 213.134 174.138 213.148 174.264 213.176V212.098C173.34 212.098 172.556 212.616 172.01 213.33V212.238H170.96V219H172.01ZM186.317 219L182.089 214.1L185.981 209.662H184.525L180.395 214.492V209.662H179.233V219H180.395V215.864L181.333 214.8L184.875 219H186.317ZM188.117 211.272C188.509 211.272 188.831 210.964 188.831 210.572C188.831 210.18 188.509 209.858 188.117 209.858C187.739 209.858 187.417 210.18 187.417 210.572C187.417 210.964 187.739 211.272 188.117 211.272ZM188.649 219V212.238H187.599V219H188.649ZM196.357 219V214.254C196.357 212.784 195.615 212.07 194.201 212.07C193.193 212.07 192.269 212.658 191.793 213.218V212.238H190.743V219H191.793V214.058C192.185 213.512 192.969 213.008 193.795 213.008C194.705 213.008 195.307 213.386 195.307 214.576V219H196.357ZM204.404 219V209.662H203.354V213.26C202.808 212.518 201.982 212.07 201.072 212.07C199.294 212.07 198.062 213.47 198.062 215.626C198.062 217.824 199.308 219.168 201.072 219.168C202.024 219.168 202.85 218.678 203.354 217.992V219H204.404ZM201.324 218.23C199.966 218.23 199.154 217.124 199.154 215.626C199.154 214.128 199.966 213.008 201.324 213.008C202.164 213.008 202.976 213.512 203.354 214.1V217.166C202.976 217.754 202.164 218.23 201.324 218.23ZM211.32 219V209.662H210.158V219H211.32ZM219.08 219V214.254C219.08 212.784 218.338 212.07 216.924 212.07C215.916 212.07 214.992 212.658 214.516 213.218V212.238H213.466V219H214.516V214.058C214.908 213.512 215.692 213.008 216.518 213.008C217.428 213.008 218.03 213.386 218.03 214.576V219H219.08ZM221.695 211.272C222.087 211.272 222.409 210.964 222.409 210.572C222.409 210.18 222.087 209.858 221.695 209.858C221.317 209.858 220.995 210.18 220.995 210.572C220.995 210.964 221.317 211.272 221.695 211.272ZM222.227 219V212.238H221.177V219H222.227ZM226.029 219.168C226.645 219.168 227.023 218.986 227.289 218.734L226.981 217.95C226.841 218.104 226.561 218.23 226.267 218.23C225.805 218.23 225.581 217.866 225.581 217.362V213.162H226.953V212.238H225.581V210.39H224.531V212.238H223.411V213.162H224.531V217.586C224.531 218.594 225.035 219.168 226.029 219.168ZM228.955 211.272C229.347 211.272 229.669 210.964 229.669 210.572C229.669 210.18 229.347 209.858 228.955 209.858C228.577 209.858 228.255 210.18 228.255 210.572C228.255 210.964 228.577 211.272 228.955 211.272ZM229.487 219V212.238H228.437V219H229.487ZM236.859 219V214.352C236.859 212.714 235.669 212.07 234.241 212.07C233.135 212.07 232.267 212.434 231.539 213.19L232.029 213.918C232.631 213.274 233.289 212.98 234.101 212.98C235.081 212.98 235.809 213.498 235.809 214.408V215.626C235.263 214.996 234.493 214.702 233.569 214.702C232.421 214.702 231.203 215.416 231.203 216.928C231.203 218.398 232.421 219.168 233.569 219.168C234.479 219.168 235.249 218.846 235.809 218.23V219H236.859ZM233.947 218.412C232.967 218.412 232.281 217.796 232.281 216.942C232.281 216.074 232.967 215.458 233.947 215.458C234.689 215.458 235.403 215.738 235.809 216.298V217.572C235.403 218.132 234.689 218.412 233.947 218.412ZM240.672 219.168C241.288 219.168 241.666 218.986 241.932 218.734L241.624 217.95C241.484 218.104 241.204 218.23 240.91 218.23C240.448 218.23 240.224 217.866 240.224 217.362V213.162H241.596V212.238H240.224V210.39H239.174V212.238H238.054V213.162H239.174V217.586C239.174 218.594 239.678 219.168 240.672 219.168ZM243.597 211.272C243.989 211.272 244.311 210.964 244.311 210.572C244.311 210.18 243.989 209.858 243.597 209.858C243.219 209.858 242.897 210.18 242.897 210.572C242.897 210.964 243.219 211.272 243.597 211.272ZM244.129 219V212.238H243.079V219H244.129ZM249.178 219L251.992 212.238H250.844L248.604 217.782L246.35 212.238H245.216L248.03 219H249.178ZM256.139 219.168C257.245 219.168 258.155 218.804 258.827 218.132L258.323 217.446C257.791 217.992 257.007 218.3 256.237 218.3C254.781 218.3 253.885 217.236 253.801 215.962H259.275V215.696C259.275 213.666 258.071 212.07 256.027 212.07C254.095 212.07 252.695 213.652 252.695 215.612C252.695 217.726 254.137 219.168 256.139 219.168ZM258.239 215.192H253.801C253.857 214.156 254.571 212.938 256.013 212.938C257.553 212.938 258.225 214.184 258.239 215.192ZM261.44 219.14C261.86 219.14 262.21 218.79 262.21 218.37C262.21 217.95 261.86 217.6 261.44 217.6C261.02 217.6 260.67 217.95 260.67 218.37C260.67 218.79 261.02 219.14 261.44 219.14Z" fill="#838383"/>


<defs>
<filter id="filter0_d" x="0" y="0" width="359" height="664" filterUnits="userSpaceOnUse" color-interpolation-filters="sRGB">
<feFlood flood-opacity="0" result="BackgroundImageFix"/>
<feColorMatrix in="SourceAlpha" type="matrix" values="0 0 0 0 0 0 0 0 0 0 0 0 0 0 0 0 0 0 127 0" result="hardAlpha"/>
<feOffset dy="3"/>
<feGaussianBlur stdDeviation="7"/>
<feColorMatrix type="matrix" values="0 0 0 0 0 0 0 0 0 0 0 0 0 0 0 0 0 0 0.14 0"/>
<feBlend mode="normal" in2="BackgroundImageFix" result="effect1_dropShadow"/>
<feBlend mode="normal" in="SourceGraphic" in2="effect1_dropShadow" result="shape"/>
</filter>
<pattern id="pattern0" patternContentUnits="objectBoundingBox" width="1" height="1">
<use xlink:href="#image0" transform="scale(0.00152905 0.00172712)"/>
</pattern>
<filter id="filter1_d" x="48" y="282" width="264" height="84" filterUnits="userSpaceOnUse" color-interpolation-filters="sRGB">
<feFlood flood-opacity="0" result="BackgroundImageFix"/>
<feColorMatrix in="SourceAlpha" type="matrix" values="0 0 0 0 0 0 0 0 0 0 0 0 0 0 0 0 0 0 127 0" result="hardAlpha"/>
<feOffset dy="3"/>
<feGaussianBlur stdDeviation="8.5"/>
<feColorMatrix type="matrix" values="0 0 0 0 0.229167 0 0 0 0 0.229167 0 0 0 0 0.229167 0 0 0 0.2 0"/>
<feBlend mode="normal" in2="BackgroundImageFix" result="effect1_dropShadow"/>
<feBlend mode="normal" in="SourceGraphic" in2="effect1_dropShadow" result="shape"/>
</filter>
<linearGradient id="paint0_linear" x1="180" y1="296" x2="180" y2="335" gradientUnits="userSpaceOnUse">
<stop stop-color="#7DAAED"/>
<stop offset="1" stop-color="#6299EC"/>
</linearGradient>
</defs>
</svg>
